<?xml version="1.0" encoding="utf-8" standalone="no"?>
<!DOCTYPE svg PUBLIC "-//W3C//DTD SVG 1.1//EN"
  "http://www.w3.org/Graphics/SVG/1.1/DTD/svg11.dtd">
<!-- Created with matplotlib (https://matplotlib.org/) -->
<svg height="360pt" version="1.1" viewBox="0 0 504 360" width="504pt" xmlns="http://www.w3.org/2000/svg" xmlns:xlink="http://www.w3.org/1999/xlink">
 <metadata>
  <rdf:RDF xmlns:cc="http://creativecommons.org/ns#" xmlns:dc="http://purl.org/dc/elements/1.1/" xmlns:rdf="http://www.w3.org/1999/02/22-rdf-syntax-ns#">
   <cc:Work>
    <dc:type rdf:resource="http://purl.org/dc/dcmitype/StillImage"/>
    <dc:date>2021-04-28T20:56:16.195107</dc:date>
    <dc:format>image/svg+xml</dc:format>
    <dc:creator>
     <cc:Agent>
      <dc:title>Matplotlib v3.3.2, https://matplotlib.org/</dc:title>
     </cc:Agent>
    </dc:creator>
   </cc:Work>
  </rdf:RDF>
 </metadata>
 <defs>
  <style type="text/css">*{stroke-linecap:butt;stroke-linejoin:round;}</style>
 </defs>
 <g id="figure_1">
  <g id="patch_1">
   <path d="M 0 360 
L 504 360 
L 504 0 
L 0 0 
z
" style="fill:#ffffff;"/>
  </g>
  <g id="axes_1">
   <g id="patch_2">
    <path d="M 50.268 314.052 
L 489.69 314.052 
L 489.69 30.528 
L 50.268 30.528 
z
" style="fill:#ffffff;"/>
   </g>
   <g id="line2d_1">
    <path clip-path="url(#pa55139990f)" d="M 160.1235 314.052 
L 160.1235 30.528 
" style="fill:none;stroke:#000000;stroke-dasharray:7.4,3.2;stroke-dashoffset:0;stroke-opacity:0.7;stroke-width:2;"/>
   </g>
   <g id="line2d_2">
    <path clip-path="url(#pa55139990f)" d="M 269.979 314.052 
L 269.979 30.528 
" style="fill:none;stroke:#000000;stroke-dasharray:7.4,3.2;stroke-dashoffset:0;stroke-opacity:0.7;stroke-width:2;"/>
   </g>
   <g id="line2d_3">
    <path clip-path="url(#pa55139990f)" d="M 379.8345 314.052 
L 379.8345 30.528 
" style="fill:none;stroke:#000000;stroke-dasharray:7.4,3.2;stroke-dashoffset:0;stroke-opacity:0.7;stroke-width:2;"/>
   </g>
   <g id="matplotlib.axis_1">
    <g id="xtick_1">
     <g id="line2d_4">
      <defs>
       <path d="M 0 0 
L 0 -3.5 
" id="mcbcfbc0d45" style="stroke:#000000;stroke-width:0.8;"/>
      </defs>
      <g>
       <use style="stroke:#000000;stroke-width:0.8;" x="50.268" xlink:href="#mcbcfbc0d45" y="314.052"/>
      </g>
     </g>
     <g id="text_1">
      <!-- -1 -->
      <g transform="translate(44.784328 325.910281)scale(0.11 -0.11)">
       <defs>
        <path d="M 4.890625 31.390625 
L 31.203125 31.390625 
L 31.203125 23.390625 
L 4.890625 23.390625 
z
" id="DejaVuSans-45"/>
        <path d="M 12.40625 8.296875 
L 28.515625 8.296875 
L 28.515625 63.921875 
L 10.984375 60.40625 
L 10.984375 69.390625 
L 28.421875 72.90625 
L 38.28125 72.90625 
L 38.28125 8.296875 
L 54.390625 8.296875 
L 54.390625 0 
L 12.40625 0 
z
" id="DejaVuSans-49"/>
       </defs>
       <use xlink:href="#DejaVuSans-45"/>
       <use x="36.083984" xlink:href="#DejaVuSans-49"/>
      </g>
     </g>
    </g>
    <g id="xtick_2">
     <g id="line2d_5">
      <g>
       <use style="stroke:#000000;stroke-width:0.8;" x="105.19575" xlink:href="#mcbcfbc0d45" y="314.052"/>
      </g>
     </g>
     <g id="text_2">
      <!-- -3/4 -->
      <g transform="translate(94.359891 325.910281)scale(0.11 -0.11)">
       <defs>
        <path d="M 40.578125 39.3125 
Q 47.65625 37.796875 51.625 33 
Q 55.609375 28.21875 55.609375 21.1875 
Q 55.609375 10.40625 48.1875 4.484375 
Q 40.765625 -1.421875 27.09375 -1.421875 
Q 22.515625 -1.421875 17.65625 -0.515625 
Q 12.796875 0.390625 7.625 2.203125 
L 7.625 11.71875 
Q 11.71875 9.328125 16.59375 8.109375 
Q 21.484375 6.890625 26.8125 6.890625 
Q 36.078125 6.890625 40.9375 10.546875 
Q 45.796875 14.203125 45.796875 21.1875 
Q 45.796875 27.640625 41.28125 31.265625 
Q 36.765625 34.90625 28.71875 34.90625 
L 20.21875 34.90625 
L 20.21875 43.015625 
L 29.109375 43.015625 
Q 36.375 43.015625 40.234375 45.921875 
Q 44.09375 48.828125 44.09375 54.296875 
Q 44.09375 59.90625 40.109375 62.90625 
Q 36.140625 65.921875 28.71875 65.921875 
Q 24.65625 65.921875 20.015625 65.03125 
Q 15.375 64.15625 9.8125 62.3125 
L 9.8125 71.09375 
Q 15.4375 72.65625 20.34375 73.4375 
Q 25.25 74.21875 29.59375 74.21875 
Q 40.828125 74.21875 47.359375 69.109375 
Q 53.90625 64.015625 53.90625 55.328125 
Q 53.90625 49.265625 50.4375 45.09375 
Q 46.96875 40.921875 40.578125 39.3125 
z
" id="DejaVuSans-51"/>
        <path d="M 25.390625 72.90625 
L 33.6875 72.90625 
L 8.296875 -9.28125 
L 0 -9.28125 
z
" id="DejaVuSans-47"/>
        <path d="M 37.796875 64.3125 
L 12.890625 25.390625 
L 37.796875 25.390625 
z
M 35.203125 72.90625 
L 47.609375 72.90625 
L 47.609375 25.390625 
L 58.015625 25.390625 
L 58.015625 17.1875 
L 47.609375 17.1875 
L 47.609375 0 
L 37.796875 0 
L 37.796875 17.1875 
L 4.890625 17.1875 
L 4.890625 26.703125 
z
" id="DejaVuSans-52"/>
       </defs>
       <use xlink:href="#DejaVuSans-45"/>
       <use x="36.083984" xlink:href="#DejaVuSans-51"/>
       <use x="99.707031" xlink:href="#DejaVuSans-47"/>
       <use x="133.398438" xlink:href="#DejaVuSans-52"/>
      </g>
     </g>
    </g>
    <g id="xtick_3">
     <g id="line2d_6">
      <g>
       <use style="stroke:#000000;stroke-width:0.8;" x="160.1235" xlink:href="#mcbcfbc0d45" y="314.052"/>
      </g>
     </g>
     <g id="text_3">
      <!-- -1/2 -->
      <g transform="translate(149.287641 325.910281)scale(0.11 -0.11)">
       <defs>
        <path d="M 19.1875 8.296875 
L 53.609375 8.296875 
L 53.609375 0 
L 7.328125 0 
L 7.328125 8.296875 
Q 12.9375 14.109375 22.625 23.890625 
Q 32.328125 33.6875 34.8125 36.53125 
Q 39.546875 41.84375 41.421875 45.53125 
Q 43.3125 49.21875 43.3125 52.78125 
Q 43.3125 58.59375 39.234375 62.25 
Q 35.15625 65.921875 28.609375 65.921875 
Q 23.96875 65.921875 18.8125 64.3125 
Q 13.671875 62.703125 7.8125 59.421875 
L 7.8125 69.390625 
Q 13.765625 71.78125 18.9375 73 
Q 24.125 74.21875 28.421875 74.21875 
Q 39.75 74.21875 46.484375 68.546875 
Q 53.21875 62.890625 53.21875 53.421875 
Q 53.21875 48.921875 51.53125 44.890625 
Q 49.859375 40.875 45.40625 35.40625 
Q 44.1875 33.984375 37.640625 27.21875 
Q 31.109375 20.453125 19.1875 8.296875 
z
" id="DejaVuSans-50"/>
       </defs>
       <use xlink:href="#DejaVuSans-45"/>
       <use x="36.083984" xlink:href="#DejaVuSans-49"/>
       <use x="99.707031" xlink:href="#DejaVuSans-47"/>
       <use x="133.398438" xlink:href="#DejaVuSans-50"/>
      </g>
     </g>
    </g>
    <g id="xtick_4">
     <g id="line2d_7">
      <g>
       <use style="stroke:#000000;stroke-width:0.8;" x="215.05125" xlink:href="#mcbcfbc0d45" y="314.052"/>
      </g>
     </g>
     <g id="text_4">
      <!-- -1/4 -->
      <g transform="translate(204.215391 325.910281)scale(0.11 -0.11)">
       <use xlink:href="#DejaVuSans-45"/>
       <use x="36.083984" xlink:href="#DejaVuSans-49"/>
       <use x="99.707031" xlink:href="#DejaVuSans-47"/>
       <use x="133.398438" xlink:href="#DejaVuSans-52"/>
      </g>
     </g>
    </g>
    <g id="xtick_5">
     <g id="line2d_8">
      <g>
       <use style="stroke:#000000;stroke-width:0.8;" x="269.979" xlink:href="#mcbcfbc0d45" y="314.052"/>
      </g>
     </g>
     <g id="text_5">
      <!-- 0 -->
      <g transform="translate(266.479625 325.910281)scale(0.11 -0.11)">
       <defs>
        <path d="M 31.78125 66.40625 
Q 24.171875 66.40625 20.328125 58.90625 
Q 16.5 51.421875 16.5 36.375 
Q 16.5 21.390625 20.328125 13.890625 
Q 24.171875 6.390625 31.78125 6.390625 
Q 39.453125 6.390625 43.28125 13.890625 
Q 47.125 21.390625 47.125 36.375 
Q 47.125 51.421875 43.28125 58.90625 
Q 39.453125 66.40625 31.78125 66.40625 
z
M 31.78125 74.21875 
Q 44.046875 74.21875 50.515625 64.515625 
Q 56.984375 54.828125 56.984375 36.375 
Q 56.984375 17.96875 50.515625 8.265625 
Q 44.046875 -1.421875 31.78125 -1.421875 
Q 19.53125 -1.421875 13.0625 8.265625 
Q 6.59375 17.96875 6.59375 36.375 
Q 6.59375 54.828125 13.0625 64.515625 
Q 19.53125 74.21875 31.78125 74.21875 
z
" id="DejaVuSans-48"/>
       </defs>
       <use xlink:href="#DejaVuSans-48"/>
      </g>
     </g>
    </g>
    <g id="xtick_6">
     <g id="line2d_9">
      <g>
       <use style="stroke:#000000;stroke-width:0.8;" x="324.90675" xlink:href="#mcbcfbc0d45" y="314.052"/>
      </g>
     </g>
     <g id="text_6">
      <!-- 1/4 -->
      <g transform="translate(316.055187 325.910281)scale(0.11 -0.11)">
       <use xlink:href="#DejaVuSans-49"/>
       <use x="63.623047" xlink:href="#DejaVuSans-47"/>
       <use x="97.314453" xlink:href="#DejaVuSans-52"/>
      </g>
     </g>
    </g>
    <g id="xtick_7">
     <g id="line2d_10">
      <g>
       <use style="stroke:#000000;stroke-width:0.8;" x="379.8345" xlink:href="#mcbcfbc0d45" y="314.052"/>
      </g>
     </g>
     <g id="text_7">
      <!-- 1/2 -->
      <g transform="translate(370.982937 325.910281)scale(0.11 -0.11)">
       <use xlink:href="#DejaVuSans-49"/>
       <use x="63.623047" xlink:href="#DejaVuSans-47"/>
       <use x="97.314453" xlink:href="#DejaVuSans-50"/>
      </g>
     </g>
    </g>
    <g id="xtick_8">
     <g id="line2d_11">
      <g>
       <use style="stroke:#000000;stroke-width:0.8;" x="434.76225" xlink:href="#mcbcfbc0d45" y="314.052"/>
      </g>
     </g>
     <g id="text_8">
      <!-- 3/4 -->
      <g transform="translate(425.910687 325.910281)scale(0.11 -0.11)">
       <use xlink:href="#DejaVuSans-51"/>
       <use x="63.623047" xlink:href="#DejaVuSans-47"/>
       <use x="97.314453" xlink:href="#DejaVuSans-52"/>
      </g>
     </g>
    </g>
    <g id="xtick_9">
     <g id="line2d_12">
      <g>
       <use style="stroke:#000000;stroke-width:0.8;" x="489.69" xlink:href="#mcbcfbc0d45" y="314.052"/>
      </g>
     </g>
     <g id="text_9">
      <!-- 1 -->
      <g transform="translate(486.190625 325.910281)scale(0.11 -0.11)">
       <use xlink:href="#DejaVuSans-49"/>
      </g>
     </g>
    </g>
    <g id="text_10">
     <!-- $n_g$ -->
     <g transform="translate(261.099 342.722938)scale(0.16 -0.16)">
      <defs>
       <path d="M 55.71875 33.015625 
L 49.3125 0 
L 40.28125 0 
L 46.6875 32.671875 
Q 47.125 34.96875 47.359375 36.71875 
Q 47.609375 38.484375 47.609375 39.5 
Q 47.609375 43.609375 45.015625 45.890625 
Q 42.4375 48.1875 37.796875 48.1875 
Q 30.5625 48.1875 25.34375 43.375 
Q 20.125 38.578125 18.5 30.328125 
L 12.5 0 
L 3.515625 0 
L 14.109375 54.6875 
L 23.09375 54.6875 
L 21.296875 46.09375 
Q 25.046875 50.828125 30.3125 53.40625 
Q 35.59375 56 41.40625 56 
Q 48.640625 56 52.609375 52.09375 
Q 56.59375 48.1875 56.59375 41.109375 
Q 56.59375 39.359375 56.375 37.359375 
Q 56.15625 35.359375 55.71875 33.015625 
z
" id="DejaVuSans-Oblique-110"/>
       <path d="M 59.625 54.6875 
L 50.296875 6.78125 
Q 47.609375 -7.125 40.015625 -13.953125 
Q 32.421875 -20.796875 19.578125 -20.796875 
Q 14.84375 -20.796875 10.78125 -20.09375 
Q 6.734375 -19.390625 3.21875 -17.921875 
L 4.890625 -9.1875 
Q 8.203125 -11.328125 11.90625 -12.34375 
Q 15.625 -13.375 19.828125 -13.375 
Q 28.375 -13.375 33.859375 -8.703125 
Q 39.359375 -4.046875 41.109375 4.6875 
L 41.890625 8.796875 
Q 38.140625 4.5 33.15625 2.25 
Q 28.171875 0 22.40625 0 
Q 14.109375 0 9.34375 5.484375 
Q 4.59375 10.984375 4.59375 20.609375 
Q 4.59375 28.171875 7.46875 35.421875 
Q 10.359375 42.671875 15.578125 48.296875 
Q 19.046875 52 23.65625 54 
Q 28.265625 56 33.296875 56 
Q 38.8125 56 42.90625 53.4375 
Q 47.015625 50.875 49.03125 46.1875 
L 50.59375 54.6875 
z
M 46.09375 34.625 
Q 46.09375 41.265625 42.96875 44.875 
Q 39.84375 48.484375 34.078125 48.484375 
Q 30.515625 48.484375 27.296875 47.0625 
Q 24.078125 45.65625 21.78125 43.109375 
Q 18.0625 38.921875 15.984375 33.234375 
Q 13.921875 27.546875 13.921875 21.484375 
Q 13.921875 14.75 17.0625 11.125 
Q 20.21875 7.515625 26.125 7.515625 
Q 34.671875 7.515625 40.375 15.25 
Q 46.09375 23 46.09375 34.625 
z
" id="DejaVuSans-Oblique-103"/>
      </defs>
      <use xlink:href="#DejaVuSans-Oblique-110"/>
      <use transform="translate(63.378906 -16.40625)scale(0.7)" xlink:href="#DejaVuSans-Oblique-103"/>
     </g>
    </g>
   </g>
   <g id="matplotlib.axis_2">
    <g id="ytick_1">
     <g id="line2d_13">
      <defs>
       <path d="M 0 0 
L 3.5 0 
" id="m98325e20d4" style="stroke:#000000;stroke-width:0.8;"/>
      </defs>
      <g>
       <use style="stroke:#000000;stroke-width:0.8;" x="50.268" xlink:href="#m98325e20d4" y="310.668278"/>
      </g>
     </g>
     <g id="text_11">
      <!-- 0 -->
      <g transform="translate(39.76925 314.847418)scale(0.11 -0.11)">
       <use xlink:href="#DejaVuSans-48"/>
      </g>
     </g>
    </g>
    <g id="ytick_2">
     <g id="line2d_14">
      <g>
       <use style="stroke:#000000;stroke-width:0.8;" x="50.268" xlink:href="#m98325e20d4" y="276.916426"/>
      </g>
     </g>
     <g id="text_12">
      <!-- 10 -->
      <g transform="translate(32.7705 281.095566)scale(0.11 -0.11)">
       <use xlink:href="#DejaVuSans-49"/>
       <use x="63.623047" xlink:href="#DejaVuSans-48"/>
      </g>
     </g>
    </g>
    <g id="ytick_3">
     <g id="line2d_15">
      <g>
       <use style="stroke:#000000;stroke-width:0.8;" x="50.268" xlink:href="#m98325e20d4" y="243.164573"/>
      </g>
     </g>
     <g id="text_13">
      <!-- 20 -->
      <g transform="translate(32.7705 247.343714)scale(0.11 -0.11)">
       <use xlink:href="#DejaVuSans-50"/>
       <use x="63.623047" xlink:href="#DejaVuSans-48"/>
      </g>
     </g>
    </g>
    <g id="ytick_4">
     <g id="line2d_16">
      <g>
       <use style="stroke:#000000;stroke-width:0.8;" x="50.268" xlink:href="#m98325e20d4" y="209.412721"/>
      </g>
     </g>
     <g id="text_14">
      <!-- 30 -->
      <g transform="translate(32.7705 213.591862)scale(0.11 -0.11)">
       <use xlink:href="#DejaVuSans-51"/>
       <use x="63.623047" xlink:href="#DejaVuSans-48"/>
      </g>
     </g>
    </g>
    <g id="ytick_5">
     <g id="line2d_17">
      <g>
       <use style="stroke:#000000;stroke-width:0.8;" x="50.268" xlink:href="#m98325e20d4" y="175.660869"/>
      </g>
     </g>
     <g id="text_15">
      <!-- 40 -->
      <g transform="translate(32.7705 179.84001)scale(0.11 -0.11)">
       <use xlink:href="#DejaVuSans-52"/>
       <use x="63.623047" xlink:href="#DejaVuSans-48"/>
      </g>
     </g>
    </g>
    <g id="ytick_6">
     <g id="line2d_18">
      <g>
       <use style="stroke:#000000;stroke-width:0.8;" x="50.268" xlink:href="#m98325e20d4" y="141.909017"/>
      </g>
     </g>
     <g id="text_16">
      <!-- 50 -->
      <g transform="translate(32.7705 146.088157)scale(0.11 -0.11)">
       <defs>
        <path d="M 10.796875 72.90625 
L 49.515625 72.90625 
L 49.515625 64.59375 
L 19.828125 64.59375 
L 19.828125 46.734375 
Q 21.96875 47.46875 24.109375 47.828125 
Q 26.265625 48.1875 28.421875 48.1875 
Q 40.625 48.1875 47.75 41.5 
Q 54.890625 34.8125 54.890625 23.390625 
Q 54.890625 11.625 47.5625 5.09375 
Q 40.234375 -1.421875 26.90625 -1.421875 
Q 22.3125 -1.421875 17.546875 -0.640625 
Q 12.796875 0.140625 7.71875 1.703125 
L 7.71875 11.625 
Q 12.109375 9.234375 16.796875 8.0625 
Q 21.484375 6.890625 26.703125 6.890625 
Q 35.15625 6.890625 40.078125 11.328125 
Q 45.015625 15.765625 45.015625 23.390625 
Q 45.015625 31 40.078125 35.4375 
Q 35.15625 39.890625 26.703125 39.890625 
Q 22.75 39.890625 18.8125 39.015625 
Q 14.890625 38.140625 10.796875 36.28125 
z
" id="DejaVuSans-53"/>
       </defs>
       <use xlink:href="#DejaVuSans-53"/>
       <use x="63.623047" xlink:href="#DejaVuSans-48"/>
      </g>
     </g>
    </g>
    <g id="ytick_7">
     <g id="line2d_19">
      <g>
       <use style="stroke:#000000;stroke-width:0.8;" x="50.268" xlink:href="#m98325e20d4" y="108.157165"/>
      </g>
     </g>
     <g id="text_17">
      <!-- 60 -->
      <g transform="translate(32.7705 112.336305)scale(0.11 -0.11)">
       <defs>
        <path d="M 33.015625 40.375 
Q 26.375 40.375 22.484375 35.828125 
Q 18.609375 31.296875 18.609375 23.390625 
Q 18.609375 15.53125 22.484375 10.953125 
Q 26.375 6.390625 33.015625 6.390625 
Q 39.65625 6.390625 43.53125 10.953125 
Q 47.40625 15.53125 47.40625 23.390625 
Q 47.40625 31.296875 43.53125 35.828125 
Q 39.65625 40.375 33.015625 40.375 
z
M 52.59375 71.296875 
L 52.59375 62.3125 
Q 48.875 64.0625 45.09375 64.984375 
Q 41.3125 65.921875 37.59375 65.921875 
Q 27.828125 65.921875 22.671875 59.328125 
Q 17.53125 52.734375 16.796875 39.40625 
Q 19.671875 43.65625 24.015625 45.921875 
Q 28.375 48.1875 33.59375 48.1875 
Q 44.578125 48.1875 50.953125 41.515625 
Q 57.328125 34.859375 57.328125 23.390625 
Q 57.328125 12.15625 50.6875 5.359375 
Q 44.046875 -1.421875 33.015625 -1.421875 
Q 20.359375 -1.421875 13.671875 8.265625 
Q 6.984375 17.96875 6.984375 36.375 
Q 6.984375 53.65625 15.1875 63.9375 
Q 23.390625 74.21875 37.203125 74.21875 
Q 40.921875 74.21875 44.703125 73.484375 
Q 48.484375 72.75 52.59375 71.296875 
z
" id="DejaVuSans-54"/>
       </defs>
       <use xlink:href="#DejaVuSans-54"/>
       <use x="63.623047" xlink:href="#DejaVuSans-48"/>
      </g>
     </g>
    </g>
    <g id="ytick_8">
     <g id="line2d_20">
      <g>
       <use style="stroke:#000000;stroke-width:0.8;" x="50.268" xlink:href="#m98325e20d4" y="74.405312"/>
      </g>
     </g>
     <g id="text_18">
      <!-- 70 -->
      <g transform="translate(32.7705 78.584453)scale(0.11 -0.11)">
       <defs>
        <path d="M 8.203125 72.90625 
L 55.078125 72.90625 
L 55.078125 68.703125 
L 28.609375 0 
L 18.3125 0 
L 43.21875 64.59375 
L 8.203125 64.59375 
z
" id="DejaVuSans-55"/>
       </defs>
       <use xlink:href="#DejaVuSans-55"/>
       <use x="63.623047" xlink:href="#DejaVuSans-48"/>
      </g>
     </g>
    </g>
    <g id="ytick_9">
     <g id="line2d_21">
      <g>
       <use style="stroke:#000000;stroke-width:0.8;" x="50.268" xlink:href="#m98325e20d4" y="40.65346"/>
      </g>
     </g>
     <g id="text_19">
      <!-- 80 -->
      <g transform="translate(32.7705 44.832601)scale(0.11 -0.11)">
       <defs>
        <path d="M 31.78125 34.625 
Q 24.75 34.625 20.71875 30.859375 
Q 16.703125 27.09375 16.703125 20.515625 
Q 16.703125 13.921875 20.71875 10.15625 
Q 24.75 6.390625 31.78125 6.390625 
Q 38.8125 6.390625 42.859375 10.171875 
Q 46.921875 13.96875 46.921875 20.515625 
Q 46.921875 27.09375 42.890625 30.859375 
Q 38.875 34.625 31.78125 34.625 
z
M 21.921875 38.8125 
Q 15.578125 40.375 12.03125 44.71875 
Q 8.5 49.078125 8.5 55.328125 
Q 8.5 64.0625 14.71875 69.140625 
Q 20.953125 74.21875 31.78125 74.21875 
Q 42.671875 74.21875 48.875 69.140625 
Q 55.078125 64.0625 55.078125 55.328125 
Q 55.078125 49.078125 51.53125 44.71875 
Q 48 40.375 41.703125 38.8125 
Q 48.828125 37.15625 52.796875 32.3125 
Q 56.78125 27.484375 56.78125 20.515625 
Q 56.78125 9.90625 50.3125 4.234375 
Q 43.84375 -1.421875 31.78125 -1.421875 
Q 19.734375 -1.421875 13.25 4.234375 
Q 6.78125 9.90625 6.78125 20.515625 
Q 6.78125 27.484375 10.78125 32.3125 
Q 14.796875 37.15625 21.921875 38.8125 
z
M 18.3125 54.390625 
Q 18.3125 48.734375 21.84375 45.5625 
Q 25.390625 42.390625 31.78125 42.390625 
Q 38.140625 42.390625 41.71875 45.5625 
Q 45.3125 48.734375 45.3125 54.390625 
Q 45.3125 60.0625 41.71875 63.234375 
Q 38.140625 66.40625 31.78125 66.40625 
Q 25.390625 66.40625 21.84375 63.234375 
Q 18.3125 60.0625 18.3125 54.390625 
z
" id="DejaVuSans-56"/>
       </defs>
       <use xlink:href="#DejaVuSans-56"/>
       <use x="63.623047" xlink:href="#DejaVuSans-48"/>
      </g>
     </g>
    </g>
    <g id="text_20">
     <!-- $E_m/E_{01}$ -->
     <g transform="translate(25.443 198.13)rotate(-90)scale(0.16 -0.16)">
      <defs>
       <path d="M 16.890625 72.90625 
L 62.984375 72.90625 
L 61.375 64.59375 
L 25.09375 64.59375 
L 20.90625 43.015625 
L 55.71875 43.015625 
L 54.109375 34.71875 
L 19.28125 34.71875 
L 14.203125 8.296875 
L 51.3125 8.296875 
L 49.703125 0 
L 2.6875 0 
z
" id="DejaVuSans-Oblique-69"/>
       <path d="M 89.796875 33.015625 
L 83.40625 0 
L 74.421875 0 
L 80.71875 32.71875 
Q 81.109375 34.8125 81.296875 36.328125 
Q 81.5 37.84375 81.5 38.921875 
Q 81.5 43.3125 79.046875 45.75 
Q 76.609375 48.1875 72.21875 48.1875 
Q 65.671875 48.1875 60.546875 43.28125 
Q 55.421875 38.375 53.90625 30.515625 
L 47.90625 0 
L 38.921875 0 
L 45.3125 32.71875 
Q 45.703125 34.515625 45.890625 36.046875 
Q 46.09375 37.59375 46.09375 38.8125 
Q 46.09375 43.265625 43.65625 45.71875 
Q 41.21875 48.1875 36.921875 48.1875 
Q 30.28125 48.1875 25.140625 43.28125 
Q 20.015625 38.375 18.5 30.515625 
L 12.5 0 
L 3.515625 0 
L 14.203125 54.6875 
L 23.1875 54.6875 
L 21.484375 46.1875 
Q 25.140625 50.984375 30.046875 53.484375 
Q 34.96875 56 40.578125 56 
Q 46.53125 56 50.359375 52.875 
Q 54.203125 49.75 54.984375 44.1875 
Q 59.078125 49.953125 64.46875 52.96875 
Q 69.875 56 75.875 56 
Q 82.90625 56 86.734375 51.953125 
Q 90.578125 47.90625 90.578125 40.484375 
Q 90.578125 38.875 90.375 36.9375 
Q 90.1875 35.015625 89.796875 33.015625 
z
" id="DejaVuSans-Oblique-109"/>
      </defs>
      <use transform="translate(0 0.09375)" xlink:href="#DejaVuSans-Oblique-69"/>
      <use transform="translate(63.183594 -16.3125)scale(0.7)" xlink:href="#DejaVuSans-Oblique-109"/>
      <use transform="translate(134.106445 0.09375)" xlink:href="#DejaVuSans-47"/>
      <use transform="translate(167.797852 0.09375)" xlink:href="#DejaVuSans-Oblique-69"/>
      <use transform="translate(230.981445 -16.3125)scale(0.7)" xlink:href="#DejaVuSans-48"/>
      <use transform="translate(275.517578 -16.3125)scale(0.7)" xlink:href="#DejaVuSans-49"/>
     </g>
    </g>
   </g>
   <g id="line2d_22">
    <path clip-path="url(#pa55139990f)" d="M 50.268 310.541645 
L 56.432236 310.51791 
L 62.596473 310.296792 
L 68.760709 309.878303 
L 74.924946 309.262466 
L 81.089182 308.44932 
L 87.253419 307.438921 
L 94.298261 306.042749 
L 101.343102 304.38923 
L 108.387944 302.478648 
L 115.432786 300.311472 
L 122.477627 297.888512 
L 129.522469 295.211305 
L 136.567311 292.28313 
L 143.612152 289.112431 
L 151.537599 285.296131 
L 157.701836 282.355125 
L 159.463046 281.710189 
L 160.343651 281.510271 
L 161.224257 281.442368 
L 162.104862 281.523839 
L 163.866072 282.034892 
L 166.507888 283.191447 
L 185.000597 291.959603 
L 192.045439 294.923939 
L 199.090281 297.637895 
L 206.135122 300.09786 
L 213.179964 302.30217 
L 220.224806 304.249957 
L 227.269647 305.940725 
L 234.314489 307.374171 
L 241.359331 308.550106 
L 247.523567 309.36771 
L 253.687804 309.988005 
L 259.85204 310.410953 
L 266.016277 310.636532 
L 272.180513 310.66473 
L 278.344749 310.495545 
L 284.508986 310.128986 
L 290.673222 309.565073 
L 296.837459 308.803838 
L 303.001695 307.845332 
L 310.046537 306.508434 
L 317.091379 304.914134 
L 324.13622 303.062684 
L 331.181062 300.954494 
L 338.225904 298.590261 
L 345.270745 295.971273 
L 352.315587 293.100182 
L 359.360429 289.983432 
L 367.285876 286.211023 
L 375.211323 282.391347 
L 376.972533 281.734396 
L 377.853138 281.523839 
L 378.733743 281.442368 
L 379.614349 281.510271 
L 381.375559 282.003444 
L 384.017375 283.149641 
L 403.390689 292.28313 
L 410.435531 295.211305 
L 417.480373 297.888512 
L 424.525214 300.311472 
L 431.570056 302.478648 
L 438.614898 304.38923 
L 445.659739 306.042749 
L 452.704581 307.438921 
L 459.749423 308.577562 
L 465.913659 309.362524 
L 472.077896 309.95017 
L 478.242132 310.340465 
L 484.406369 310.533386 
L 489.69 310.541645 
L 489.69 310.541645 
" style="fill:none;stroke:#1f77b4;stroke-linecap:square;stroke-width:3;"/>
   </g>
   <g id="line2d_23">
    <path clip-path="url(#pa55139990f)" d="M 50.268 189.390102 
L 52.02921 187.420572 
L 52.909816 188.079808 
L 60.835263 196.86338 
L 68.760709 205.320017 
L 76.686156 213.449595 
L 84.611603 221.252005 
L 92.53705 228.727088 
L 100.462497 235.874603 
L 108.387944 242.694163 
L 115.432786 248.48015 
L 122.477627 254.005681 
L 129.522469 259.269216 
L 136.567311 264.267475 
L 143.612152 268.992009 
L 149.776389 272.879538 
L 155.06002 275.958482 
L 157.701836 277.308235 
L 159.463046 278.00284 
L 160.343651 278.215494 
L 161.224257 278.288064 
L 162.104862 278.203196 
L 163.866072 277.661148 
L 166.507888 276.397603 
L 170.910914 273.904998 
L 177.07515 270.097112 
L 184.119992 265.448698 
L 191.164834 260.522672 
L 198.209675 255.330058 
L 205.254517 249.874886 
L 212.299359 244.158978 
L 219.3442 238.183275 
L 227.269647 231.150733 
L 235.195094 223.790517 
L 243.120541 216.102906 
L 251.045988 208.088084 
L 258.971435 199.746171 
L 266.896882 191.077261 
L 269.538697 188.115042 
L 270.419303 188.115042 
L 278.344749 196.892863 
L 286.270196 205.343785 
L 294.195643 213.467649 
L 302.12109 221.264346 
L 310.046537 228.733719 
L 317.971984 235.875526 
L 325.897431 242.689382 
L 332.942273 248.470306 
L 339.987114 253.990786 
L 347.031956 259.249293 
L 354.076798 264.242576 
L 361.121639 268.962283 
L 367.285876 272.846057 
L 372.569507 275.923788 
L 375.211323 277.277096 
L 376.972533 277.981174 
L 377.853138 278.203196 
L 378.733743 278.288064 
L 379.614349 278.215494 
L 381.375559 277.688784 
L 384.017375 276.431783 
L 388.420401 273.939293 
L 394.584637 270.127987 
L 401.629479 265.474825 
L 408.674321 260.543846 
L 415.719162 255.346212 
L 422.764004 249.885994 
L 429.808846 244.165025 
L 436.853687 238.184254 
L 444.779134 231.146005 
L 452.704581 223.780079 
L 460.630028 216.086757 
L 468.555475 208.066221 
L 476.480922 199.718594 
L 484.406369 191.043967 
L 487.048184 188.079808 
L 487.92879 187.420572 
L 489.69 189.390102 
L 489.69 189.390102 
" style="fill:none;stroke:#ff7f0e;stroke-linecap:square;stroke-width:3;"/>
   </g>
   <g id="line2d_24">
    <path clip-path="url(#pa55139990f)" d="M 50.268 185.079206 
L 52.02921 187.083348 
L 52.909816 186.42931 
L 60.835263 177.32927 
L 68.760709 167.902304 
L 76.686156 158.148487 
L 84.611603 148.067843 
L 93.417655 136.483834 
L 102.223707 124.496377 
L 111.02976 112.105488 
L 119.835812 99.311178 
L 128.641864 86.113457 
L 137.447916 72.512333 
L 146.253968 58.507814 
L 155.06002 44.099905 
L 161.224257 33.903185 
L 170.030309 48.638983 
L 178.836361 62.971521 
L 187.642413 76.900666 
L 196.448465 90.426414 
L 205.254517 103.548756 
L 214.060569 116.267684 
L 222.866621 128.583187 
L 231.672673 140.495252 
L 240.478725 152.003862 
L 248.404172 162.016639 
L 256.329619 171.702581 
L 264.255066 181.061658 
L 269.538697 187.119356 
L 270.419303 187.119356 
L 278.344749 177.978286 
L 286.270196 168.51025 
L 294.195643 158.715361 
L 302.12109 148.593643 
L 310.927142 136.963994 
L 319.733194 124.930896 
L 328.539246 112.494364 
L 337.345299 99.654411 
L 346.151351 86.411047 
L 354.957403 72.764279 
L 363.763455 58.714115 
L 372.569507 44.260561 
L 378.733743 33.903185 
L 380.494954 36.744682 
L 389.301006 51.354283 
L 398.107058 65.560498 
L 406.91311 79.36332 
L 415.719162 92.762743 
L 424.525214 105.75876 
L 433.331267 118.351361 
L 442.137319 130.540536 
L 450.943371 142.326271 
L 459.749423 153.708549 
L 467.67487 163.607625 
L 475.600317 173.179861 
L 483.525764 182.425228 
L 487.048184 186.42931 
L 487.92879 187.083348 
L 489.69 185.079206 
L 489.69 185.079206 
" style="fill:none;stroke:#2ca02c;stroke-linecap:square;stroke-width:3;"/>
   </g>
   <g id="patch_3">
    <path d="M 50.268 314.052 
L 50.268 30.528 
" style="fill:none;stroke:#000000;stroke-linecap:square;stroke-linejoin:miter;stroke-width:0.8;"/>
   </g>
   <g id="patch_4">
    <path d="M 489.69 314.052 
L 489.69 30.528 
" style="fill:none;stroke:#000000;stroke-linecap:square;stroke-linejoin:miter;stroke-width:0.8;"/>
   </g>
   <g id="patch_5">
    <path d="M 50.268 314.052 
L 489.69 314.052 
" style="fill:none;stroke:#000000;stroke-linecap:square;stroke-linejoin:miter;stroke-width:0.8;"/>
   </g>
   <g id="patch_6">
    <path d="M 50.268 30.528 
L 489.69 30.528 
" style="fill:none;stroke:#000000;stroke-linecap:square;stroke-linejoin:miter;stroke-width:0.8;"/>
   </g>
   <g id="text_21">
    <!-- $E_J/E_C = 0.1$ -->
    <g transform="translate(228.619 24.528)scale(0.16 -0.16)">
     <defs>
      <path d="M 16.703125 72.90625 
L 26.609375 72.90625 
L 13.375 5.078125 
Q 10.796875 -8.15625 4.65625 -14.078125 
Q -1.46875 -20.015625 -12.5 -20.015625 
L -16.40625 -20.015625 
L -14.796875 -11.71875 
L -11.71875 -11.71875 
Q -5.125 -11.71875 -1.703125 -7.953125 
Q 1.703125 -4.203125 3.515625 5.078125 
z
" id="DejaVuSans-Oblique-74"/>
      <path d="M 69.484375 67.28125 
L 67.484375 56.890625 
Q 62.796875 61.625 57.546875 63.921875 
Q 52.296875 66.21875 46.1875 66.21875 
Q 37.84375 66.21875 31.515625 62.203125 
Q 25.203125 58.203125 20.609375 50 
Q 17.671875 44.734375 16.125 38.84375 
Q 14.59375 32.953125 14.59375 27 
Q 14.59375 17.046875 19.75 11.8125 
Q 24.90625 6.59375 34.71875 6.59375 
Q 41.5 6.59375 47.75 8.765625 
Q 54 10.9375 59.90625 15.28125 
L 57.625 3.609375 
Q 51.8125 1.125 45.875 -0.140625 
Q 39.9375 -1.421875 33.984375 -1.421875 
Q 19.96875 -1.421875 12.078125 6.1875 
Q 4.203125 13.8125 4.203125 27.390625 
Q 4.203125 36.078125 7.203125 44.46875 
Q 10.203125 52.875 15.828125 59.8125 
Q 21.78125 67.1875 29.421875 70.703125 
Q 37.0625 74.21875 47.21875 74.21875 
Q 53.46875 74.21875 59.0625 72.484375 
Q 64.65625 70.75 69.484375 67.28125 
z
" id="DejaVuSans-Oblique-67"/>
      <path d="M 10.59375 45.40625 
L 73.1875 45.40625 
L 73.1875 37.203125 
L 10.59375 37.203125 
z
M 10.59375 25.484375 
L 73.1875 25.484375 
L 73.1875 17.1875 
L 10.59375 17.1875 
z
" id="DejaVuSans-61"/>
      <path d="M 10.6875 12.40625 
L 21 12.40625 
L 21 0 
L 10.6875 0 
z
" id="DejaVuSans-46"/>
     </defs>
     <use transform="translate(0 0.78125)" xlink:href="#DejaVuSans-Oblique-69"/>
     <use transform="translate(63.183594 -15.625)scale(0.7)" xlink:href="#DejaVuSans-Oblique-74"/>
     <use transform="translate(86.5625 0.78125)" xlink:href="#DejaVuSans-47"/>
     <use transform="translate(120.253906 0.78125)" xlink:href="#DejaVuSans-Oblique-69"/>
     <use transform="translate(183.4375 -15.625)scale(0.7)" xlink:href="#DejaVuSans-Oblique-67"/>
     <use transform="translate(254.53125 0.78125)" xlink:href="#DejaVuSans-61"/>
     <use transform="translate(357.802734 0.78125)" xlink:href="#DejaVuSans-48"/>
     <use transform="translate(421.425781 0.78125)" xlink:href="#DejaVuSans-46"/>
     <use transform="translate(453.212891 0.78125)" xlink:href="#DejaVuSans-49"/>
    </g>
   </g>
   <g id="legend_1">
    <g id="patch_7">
     <path d="M 390.93 94.488 
L 481.29 94.488 
Q 483.69 94.488 483.69 92.088 
L 483.69 38.928 
Q 483.69 36.528 481.29 36.528 
L 390.93 36.528 
Q 388.53 36.528 388.53 38.928 
L 388.53 92.088 
Q 388.53 94.488 390.93 94.488 
z
" style="fill:#ffffff;opacity:0.8;stroke:#cccccc;stroke-linejoin:miter;"/>
    </g>
    <g id="line2d_25">
     <path d="M 393.33 46.368 
L 417.33 46.368 
" style="fill:none;stroke:#1f77b4;stroke-linecap:square;stroke-width:3;"/>
    </g>
    <g id="line2d_26"/>
    <g id="text_22">
     <!-- State $|0\rangle$ -->
     <g transform="translate(426.93 50.568)scale(0.12 -0.12)">
      <defs>
       <path d="M 53.515625 70.515625 
L 53.515625 60.890625 
Q 47.90625 63.578125 42.921875 64.890625 
Q 37.9375 66.21875 33.296875 66.21875 
Q 25.25 66.21875 20.875 63.09375 
Q 16.5 59.96875 16.5 54.203125 
Q 16.5 49.359375 19.40625 46.890625 
Q 22.3125 44.4375 30.421875 42.921875 
L 36.375 41.703125 
Q 47.40625 39.59375 52.65625 34.296875 
Q 57.90625 29 57.90625 20.125 
Q 57.90625 9.515625 50.796875 4.046875 
Q 43.703125 -1.421875 29.984375 -1.421875 
Q 24.8125 -1.421875 18.96875 -0.25 
Q 13.140625 0.921875 6.890625 3.21875 
L 6.890625 13.375 
Q 12.890625 10.015625 18.65625 8.296875 
Q 24.421875 6.59375 29.984375 6.59375 
Q 38.421875 6.59375 43.015625 9.90625 
Q 47.609375 13.234375 47.609375 19.390625 
Q 47.609375 24.75 44.3125 27.78125 
Q 41.015625 30.8125 33.5 32.328125 
L 27.484375 33.5 
Q 16.453125 35.6875 11.515625 40.375 
Q 6.59375 45.0625 6.59375 53.421875 
Q 6.59375 63.09375 13.40625 68.65625 
Q 20.21875 74.21875 32.171875 74.21875 
Q 37.3125 74.21875 42.625 73.28125 
Q 47.953125 72.359375 53.515625 70.515625 
z
" id="DejaVuSans-83"/>
       <path d="M 18.3125 70.21875 
L 18.3125 54.6875 
L 36.8125 54.6875 
L 36.8125 47.703125 
L 18.3125 47.703125 
L 18.3125 18.015625 
Q 18.3125 11.328125 20.140625 9.421875 
Q 21.96875 7.515625 27.59375 7.515625 
L 36.8125 7.515625 
L 36.8125 0 
L 27.59375 0 
Q 17.1875 0 13.234375 3.875 
Q 9.28125 7.765625 9.28125 18.015625 
L 9.28125 47.703125 
L 2.6875 47.703125 
L 2.6875 54.6875 
L 9.28125 54.6875 
L 9.28125 70.21875 
z
" id="DejaVuSans-116"/>
       <path d="M 34.28125 27.484375 
Q 23.390625 27.484375 19.1875 25 
Q 14.984375 22.515625 14.984375 16.5 
Q 14.984375 11.71875 18.140625 8.90625 
Q 21.296875 6.109375 26.703125 6.109375 
Q 34.1875 6.109375 38.703125 11.40625 
Q 43.21875 16.703125 43.21875 25.484375 
L 43.21875 27.484375 
z
M 52.203125 31.203125 
L 52.203125 0 
L 43.21875 0 
L 43.21875 8.296875 
Q 40.140625 3.328125 35.546875 0.953125 
Q 30.953125 -1.421875 24.3125 -1.421875 
Q 15.921875 -1.421875 10.953125 3.296875 
Q 6 8.015625 6 15.921875 
Q 6 25.140625 12.171875 29.828125 
Q 18.359375 34.515625 30.609375 34.515625 
L 43.21875 34.515625 
L 43.21875 35.40625 
Q 43.21875 41.609375 39.140625 45 
Q 35.0625 48.390625 27.6875 48.390625 
Q 23 48.390625 18.546875 47.265625 
Q 14.109375 46.140625 10.015625 43.890625 
L 10.015625 52.203125 
Q 14.9375 54.109375 19.578125 55.046875 
Q 24.21875 56 28.609375 56 
Q 40.484375 56 46.34375 49.84375 
Q 52.203125 43.703125 52.203125 31.203125 
z
" id="DejaVuSans-97"/>
       <path d="M 56.203125 29.59375 
L 56.203125 25.203125 
L 14.890625 25.203125 
Q 15.484375 15.921875 20.484375 11.0625 
Q 25.484375 6.203125 34.421875 6.203125 
Q 39.59375 6.203125 44.453125 7.46875 
Q 49.3125 8.734375 54.109375 11.28125 
L 54.109375 2.78125 
Q 49.265625 0.734375 44.1875 -0.34375 
Q 39.109375 -1.421875 33.890625 -1.421875 
Q 20.796875 -1.421875 13.15625 6.1875 
Q 5.515625 13.8125 5.515625 26.8125 
Q 5.515625 40.234375 12.765625 48.109375 
Q 20.015625 56 32.328125 56 
Q 43.359375 56 49.78125 48.890625 
Q 56.203125 41.796875 56.203125 29.59375 
z
M 47.21875 32.234375 
Q 47.125 39.59375 43.09375 43.984375 
Q 39.0625 48.390625 32.421875 48.390625 
Q 24.90625 48.390625 20.390625 44.140625 
Q 15.875 39.890625 15.1875 32.171875 
z
" id="DejaVuSans-101"/>
       <path id="DejaVuSans-32"/>
       <path d="M 21 76.421875 
L 21 -23.578125 
L 12.703125 -23.578125 
L 12.703125 76.421875 
z
" id="DejaVuSans-124"/>
       <path d="M 30.078125 31.34375 
L 16.3125 -13.1875 
L 8.015625 -13.1875 
L 21.78125 31.34375 
L 8.015625 75.875 
L 16.3125 75.875 
z
" id="DejaVuSans-10217"/>
      </defs>
      <use transform="translate(0 0.578125)" xlink:href="#DejaVuSans-83"/>
      <use transform="translate(63.476562 0.578125)" xlink:href="#DejaVuSans-116"/>
      <use transform="translate(102.685547 0.578125)" xlink:href="#DejaVuSans-97"/>
      <use transform="translate(163.964844 0.578125)" xlink:href="#DejaVuSans-116"/>
      <use transform="translate(203.173828 0.578125)" xlink:href="#DejaVuSans-101"/>
      <use transform="translate(264.697266 0.578125)" xlink:href="#DejaVuSans-32"/>
      <use transform="translate(296.484375 0.578125)" xlink:href="#DejaVuSans-124"/>
      <use transform="translate(330.175781 0.578125)" xlink:href="#DejaVuSans-48"/>
      <use transform="translate(393.798828 0.578125)" xlink:href="#DejaVuSans-10217"/>
     </g>
    </g>
    <g id="line2d_27">
     <path d="M 393.33 64.488 
L 417.33 64.488 
" style="fill:none;stroke:#ff7f0e;stroke-linecap:square;stroke-width:3;"/>
    </g>
    <g id="line2d_28"/>
    <g id="text_23">
     <!-- State $|1\rangle$ -->
     <g transform="translate(426.93 68.688)scale(0.12 -0.12)">
      <use transform="translate(0 0.578125)" xlink:href="#DejaVuSans-83"/>
      <use transform="translate(63.476562 0.578125)" xlink:href="#DejaVuSans-116"/>
      <use transform="translate(102.685547 0.578125)" xlink:href="#DejaVuSans-97"/>
      <use transform="translate(163.964844 0.578125)" xlink:href="#DejaVuSans-116"/>
      <use transform="translate(203.173828 0.578125)" xlink:href="#DejaVuSans-101"/>
      <use transform="translate(264.697266 0.578125)" xlink:href="#DejaVuSans-32"/>
      <use transform="translate(296.484375 0.578125)" xlink:href="#DejaVuSans-124"/>
      <use transform="translate(330.175781 0.578125)" xlink:href="#DejaVuSans-49"/>
      <use transform="translate(393.798828 0.578125)" xlink:href="#DejaVuSans-10217"/>
     </g>
    </g>
    <g id="line2d_29">
     <path d="M 393.33 82.608 
L 417.33 82.608 
" style="fill:none;stroke:#2ca02c;stroke-linecap:square;stroke-width:3;"/>
    </g>
    <g id="line2d_30"/>
    <g id="text_24">
     <!-- State $|2\rangle$ -->
     <g transform="translate(426.93 86.808)scale(0.12 -0.12)">
      <use transform="translate(0 0.578125)" xlink:href="#DejaVuSans-83"/>
      <use transform="translate(63.476562 0.578125)" xlink:href="#DejaVuSans-116"/>
      <use transform="translate(102.685547 0.578125)" xlink:href="#DejaVuSans-97"/>
      <use transform="translate(163.964844 0.578125)" xlink:href="#DejaVuSans-116"/>
      <use transform="translate(203.173828 0.578125)" xlink:href="#DejaVuSans-101"/>
      <use transform="translate(264.697266 0.578125)" xlink:href="#DejaVuSans-32"/>
      <use transform="translate(296.484375 0.578125)" xlink:href="#DejaVuSans-124"/>
      <use transform="translate(330.175781 0.578125)" xlink:href="#DejaVuSans-50"/>
      <use transform="translate(393.798828 0.578125)" xlink:href="#DejaVuSans-10217"/>
     </g>
    </g>
   </g>
  </g>
 </g>
 <defs>
  <clipPath id="pa55139990f">
   <rect height="283.524" width="439.422" x="50.268" y="30.528"/>
  </clipPath>
 </defs>
</svg>
