<?xml version="1.0" encoding="utf-8" standalone="no"?>
<!DOCTYPE svg PUBLIC "-//W3C//DTD SVG 1.1//EN"
  "http://www.w3.org/Graphics/SVG/1.1/DTD/svg11.dtd">
<!-- Created with matplotlib (https://matplotlib.org/) -->
<svg height="432pt" version="1.1" viewBox="0 0 576 432" width="576pt" xmlns="http://www.w3.org/2000/svg" xmlns:xlink="http://www.w3.org/1999/xlink">
 <metadata>
  <rdf:RDF xmlns:cc="http://creativecommons.org/ns#" xmlns:dc="http://purl.org/dc/elements/1.1/" xmlns:rdf="http://www.w3.org/1999/02/22-rdf-syntax-ns#">
   <cc:Work>
    <dc:type rdf:resource="http://purl.org/dc/dcmitype/StillImage"/>
    <dc:date>2021-04-28T20:55:50.029646</dc:date>
    <dc:format>image/svg+xml</dc:format>
    <dc:creator>
     <cc:Agent>
      <dc:title>Matplotlib v3.3.2, https://matplotlib.org/</dc:title>
     </cc:Agent>
    </dc:creator>
   </cc:Work>
  </rdf:RDF>
 </metadata>
 <defs>
  <style type="text/css">*{stroke-linecap:butt;stroke-linejoin:round;}</style>
 </defs>
 <g id="figure_1">
  <g id="patch_1">
   <path d="M 0 432 
L 576 432 
L 576 0 
L 0 0 
z
" style="fill:#ffffff;"/>
  </g>
  <g id="axes_1">
   <g id="patch_2">
    <path d="M 48.96 169.654737 
L 288.96 169.654737 
L 288.96 23.76 
L 48.96 23.76 
z
" style="fill:#ffffff;"/>
   </g>
   <g id="matplotlib.axis_1">
    <g id="xtick_1">
     <g id="line2d_1">
      <defs>
       <path d="M 0 0 
L 0 3.5 
" id="maa15ee8c19" style="stroke:#000000;stroke-width:0.8;"/>
      </defs>
      <g>
       <use style="stroke:#000000;stroke-width:0.8;" x="48.96" xlink:href="#maa15ee8c19" y="169.654737"/>
      </g>
     </g>
     <g id="text_1">
      <!-- $-2$ -->
      <g transform="translate(41.56 184.253174)scale(0.1 -0.1)">
       <defs>
        <path d="M 10.59375 35.5 
L 73.1875 35.5 
L 73.1875 27.203125 
L 10.59375 27.203125 
z
" id="DejaVuSans-8722"/>
        <path d="M 19.1875 8.296875 
L 53.609375 8.296875 
L 53.609375 0 
L 7.328125 0 
L 7.328125 8.296875 
Q 12.9375 14.109375 22.625 23.890625 
Q 32.328125 33.6875 34.8125 36.53125 
Q 39.546875 41.84375 41.421875 45.53125 
Q 43.3125 49.21875 43.3125 52.78125 
Q 43.3125 58.59375 39.234375 62.25 
Q 35.15625 65.921875 28.609375 65.921875 
Q 23.96875 65.921875 18.8125 64.3125 
Q 13.671875 62.703125 7.8125 59.421875 
L 7.8125 69.390625 
Q 13.765625 71.78125 18.9375 73 
Q 24.125 74.21875 28.421875 74.21875 
Q 39.75 74.21875 46.484375 68.546875 
Q 53.21875 62.890625 53.21875 53.421875 
Q 53.21875 48.921875 51.53125 44.890625 
Q 49.859375 40.875 45.40625 35.40625 
Q 44.1875 33.984375 37.640625 27.21875 
Q 31.109375 20.453125 19.1875 8.296875 
z
" id="DejaVuSans-50"/>
       </defs>
       <use transform="translate(0 0.78125)" xlink:href="#DejaVuSans-8722"/>
       <use transform="translate(83.789062 0.78125)" xlink:href="#DejaVuSans-50"/>
      </g>
     </g>
    </g>
    <g id="xtick_2">
     <g id="line2d_2">
      <g>
       <use style="stroke:#000000;stroke-width:0.8;" x="78.96" xlink:href="#maa15ee8c19" y="169.654737"/>
      </g>
     </g>
     <g id="text_2">
      <!-- $-3/2$ -->
      <g transform="translate(66.86 184.253174)scale(0.1 -0.1)">
       <defs>
        <path d="M 40.578125 39.3125 
Q 47.65625 37.796875 51.625 33 
Q 55.609375 28.21875 55.609375 21.1875 
Q 55.609375 10.40625 48.1875 4.484375 
Q 40.765625 -1.421875 27.09375 -1.421875 
Q 22.515625 -1.421875 17.65625 -0.515625 
Q 12.796875 0.390625 7.625 2.203125 
L 7.625 11.71875 
Q 11.71875 9.328125 16.59375 8.109375 
Q 21.484375 6.890625 26.8125 6.890625 
Q 36.078125 6.890625 40.9375 10.546875 
Q 45.796875 14.203125 45.796875 21.1875 
Q 45.796875 27.640625 41.28125 31.265625 
Q 36.765625 34.90625 28.71875 34.90625 
L 20.21875 34.90625 
L 20.21875 43.015625 
L 29.109375 43.015625 
Q 36.375 43.015625 40.234375 45.921875 
Q 44.09375 48.828125 44.09375 54.296875 
Q 44.09375 59.90625 40.109375 62.90625 
Q 36.140625 65.921875 28.71875 65.921875 
Q 24.65625 65.921875 20.015625 65.03125 
Q 15.375 64.15625 9.8125 62.3125 
L 9.8125 71.09375 
Q 15.4375 72.65625 20.34375 73.4375 
Q 25.25 74.21875 29.59375 74.21875 
Q 40.828125 74.21875 47.359375 69.109375 
Q 53.90625 64.015625 53.90625 55.328125 
Q 53.90625 49.265625 50.4375 45.09375 
Q 46.96875 40.921875 40.578125 39.3125 
z
" id="DejaVuSans-51"/>
        <path d="M 25.390625 72.90625 
L 33.6875 72.90625 
L 8.296875 -9.28125 
L 0 -9.28125 
z
" id="DejaVuSans-47"/>
       </defs>
       <use transform="translate(0 0.78125)" xlink:href="#DejaVuSans-8722"/>
       <use transform="translate(83.789062 0.78125)" xlink:href="#DejaVuSans-51"/>
       <use transform="translate(147.412109 0.78125)" xlink:href="#DejaVuSans-47"/>
       <use transform="translate(177.478516 0.78125)" xlink:href="#DejaVuSans-50"/>
      </g>
     </g>
    </g>
    <g id="xtick_3">
     <g id="line2d_3">
      <g>
       <use style="stroke:#000000;stroke-width:0.8;" x="108.96" xlink:href="#maa15ee8c19" y="169.654737"/>
      </g>
     </g>
     <g id="text_3">
      <!-- $-1$ -->
      <g transform="translate(101.56 184.253174)scale(0.1 -0.1)">
       <defs>
        <path d="M 12.40625 8.296875 
L 28.515625 8.296875 
L 28.515625 63.921875 
L 10.984375 60.40625 
L 10.984375 69.390625 
L 28.421875 72.90625 
L 38.28125 72.90625 
L 38.28125 8.296875 
L 54.390625 8.296875 
L 54.390625 0 
L 12.40625 0 
z
" id="DejaVuSans-49"/>
       </defs>
       <use transform="translate(0 0.09375)" xlink:href="#DejaVuSans-8722"/>
       <use transform="translate(83.789062 0.09375)" xlink:href="#DejaVuSans-49"/>
      </g>
     </g>
    </g>
    <g id="xtick_4">
     <g id="line2d_4">
      <g>
       <use style="stroke:#000000;stroke-width:0.8;" x="138.96" xlink:href="#maa15ee8c19" y="169.654737"/>
      </g>
     </g>
     <g id="text_4">
      <!-- $-1/2$ -->
      <g transform="translate(126.86 184.253174)scale(0.1 -0.1)">
       <use transform="translate(0 0.78125)" xlink:href="#DejaVuSans-8722"/>
       <use transform="translate(83.789062 0.78125)" xlink:href="#DejaVuSans-49"/>
       <use transform="translate(147.412109 0.78125)" xlink:href="#DejaVuSans-47"/>
       <use transform="translate(177.478516 0.78125)" xlink:href="#DejaVuSans-50"/>
      </g>
     </g>
    </g>
    <g id="xtick_5">
     <g id="line2d_5">
      <g>
       <use style="stroke:#000000;stroke-width:0.8;" x="168.96" xlink:href="#maa15ee8c19" y="169.654737"/>
      </g>
     </g>
     <g id="text_5">
      <!-- $0$ -->
      <g transform="translate(165.76 184.253174)scale(0.1 -0.1)">
       <defs>
        <path d="M 31.78125 66.40625 
Q 24.171875 66.40625 20.328125 58.90625 
Q 16.5 51.421875 16.5 36.375 
Q 16.5 21.390625 20.328125 13.890625 
Q 24.171875 6.390625 31.78125 6.390625 
Q 39.453125 6.390625 43.28125 13.890625 
Q 47.125 21.390625 47.125 36.375 
Q 47.125 51.421875 43.28125 58.90625 
Q 39.453125 66.40625 31.78125 66.40625 
z
M 31.78125 74.21875 
Q 44.046875 74.21875 50.515625 64.515625 
Q 56.984375 54.828125 56.984375 36.375 
Q 56.984375 17.96875 50.515625 8.265625 
Q 44.046875 -1.421875 31.78125 -1.421875 
Q 19.53125 -1.421875 13.0625 8.265625 
Q 6.59375 17.96875 6.59375 36.375 
Q 6.59375 54.828125 13.0625 64.515625 
Q 19.53125 74.21875 31.78125 74.21875 
z
" id="DejaVuSans-48"/>
       </defs>
       <use transform="translate(0 0.78125)" xlink:href="#DejaVuSans-48"/>
      </g>
     </g>
    </g>
    <g id="xtick_6">
     <g id="line2d_6">
      <g>
       <use style="stroke:#000000;stroke-width:0.8;" x="198.96" xlink:href="#maa15ee8c19" y="169.654737"/>
      </g>
     </g>
     <g id="text_6">
      <!-- $1/2$ -->
      <g transform="translate(191.06 184.253174)scale(0.1 -0.1)">
       <use transform="translate(0 0.78125)" xlink:href="#DejaVuSans-49"/>
       <use transform="translate(63.623047 0.78125)" xlink:href="#DejaVuSans-47"/>
       <use transform="translate(93.689453 0.78125)" xlink:href="#DejaVuSans-50"/>
      </g>
     </g>
    </g>
    <g id="xtick_7">
     <g id="line2d_7">
      <g>
       <use style="stroke:#000000;stroke-width:0.8;" x="228.96" xlink:href="#maa15ee8c19" y="169.654737"/>
      </g>
     </g>
     <g id="text_7">
      <!-- $1$ -->
      <g transform="translate(225.76 184.253174)scale(0.1 -0.1)">
       <use transform="translate(0 0.09375)" xlink:href="#DejaVuSans-49"/>
      </g>
     </g>
    </g>
    <g id="xtick_8">
     <g id="line2d_8">
      <g>
       <use style="stroke:#000000;stroke-width:0.8;" x="258.96" xlink:href="#maa15ee8c19" y="169.654737"/>
      </g>
     </g>
     <g id="text_8">
      <!-- $3/2$ -->
      <g transform="translate(251.06 184.253174)scale(0.1 -0.1)">
       <use transform="translate(0 0.78125)" xlink:href="#DejaVuSans-51"/>
       <use transform="translate(63.623047 0.78125)" xlink:href="#DejaVuSans-47"/>
       <use transform="translate(93.689453 0.78125)" xlink:href="#DejaVuSans-50"/>
      </g>
     </g>
    </g>
    <g id="xtick_9">
     <g id="line2d_9">
      <g>
       <use style="stroke:#000000;stroke-width:0.8;" x="288.96" xlink:href="#maa15ee8c19" y="169.654737"/>
      </g>
     </g>
     <g id="text_9">
      <!-- $2$ -->
      <g transform="translate(285.76 184.253174)scale(0.1 -0.1)">
       <use transform="translate(0 0.78125)" xlink:href="#DejaVuSans-50"/>
      </g>
     </g>
    </g>
   </g>
   <g id="matplotlib.axis_2">
    <g id="ytick_1">
     <g id="line2d_10">
      <defs>
       <path d="M 0 0 
L -3.5 0 
" id="m0e551114ed" style="stroke:#000000;stroke-width:0.8;"/>
      </defs>
      <g>
       <use style="stroke:#000000;stroke-width:0.8;" x="48.96" xlink:href="#m0e551114ed" y="154.927945"/>
      </g>
     </g>
     <g id="text_10">
      <!-- 0 -->
      <g transform="translate(35.5975 158.727164)scale(0.1 -0.1)">
       <use xlink:href="#DejaVuSans-48"/>
      </g>
     </g>
    </g>
    <g id="ytick_2">
     <g id="line2d_11">
      <g>
       <use style="stroke:#000000;stroke-width:0.8;" x="48.96" xlink:href="#m0e551114ed" y="128.64819"/>
      </g>
     </g>
     <g id="text_11">
      <!-- 2 -->
      <g transform="translate(35.5975 132.447409)scale(0.1 -0.1)">
       <use xlink:href="#DejaVuSans-50"/>
      </g>
     </g>
    </g>
    <g id="ytick_3">
     <g id="line2d_12">
      <g>
       <use style="stroke:#000000;stroke-width:0.8;" x="48.96" xlink:href="#m0e551114ed" y="102.368435"/>
      </g>
     </g>
     <g id="text_12">
      <!-- 4 -->
      <g transform="translate(35.5975 106.167654)scale(0.1 -0.1)">
       <defs>
        <path d="M 37.796875 64.3125 
L 12.890625 25.390625 
L 37.796875 25.390625 
z
M 35.203125 72.90625 
L 47.609375 72.90625 
L 47.609375 25.390625 
L 58.015625 25.390625 
L 58.015625 17.1875 
L 47.609375 17.1875 
L 47.609375 0 
L 37.796875 0 
L 37.796875 17.1875 
L 4.890625 17.1875 
L 4.890625 26.703125 
z
" id="DejaVuSans-52"/>
       </defs>
       <use xlink:href="#DejaVuSans-52"/>
      </g>
     </g>
    </g>
    <g id="ytick_4">
     <g id="line2d_13">
      <g>
       <use style="stroke:#000000;stroke-width:0.8;" x="48.96" xlink:href="#m0e551114ed" y="76.08868"/>
      </g>
     </g>
     <g id="text_13">
      <!-- 6 -->
      <g transform="translate(35.5975 79.887899)scale(0.1 -0.1)">
       <defs>
        <path d="M 33.015625 40.375 
Q 26.375 40.375 22.484375 35.828125 
Q 18.609375 31.296875 18.609375 23.390625 
Q 18.609375 15.53125 22.484375 10.953125 
Q 26.375 6.390625 33.015625 6.390625 
Q 39.65625 6.390625 43.53125 10.953125 
Q 47.40625 15.53125 47.40625 23.390625 
Q 47.40625 31.296875 43.53125 35.828125 
Q 39.65625 40.375 33.015625 40.375 
z
M 52.59375 71.296875 
L 52.59375 62.3125 
Q 48.875 64.0625 45.09375 64.984375 
Q 41.3125 65.921875 37.59375 65.921875 
Q 27.828125 65.921875 22.671875 59.328125 
Q 17.53125 52.734375 16.796875 39.40625 
Q 19.671875 43.65625 24.015625 45.921875 
Q 28.375 48.1875 33.59375 48.1875 
Q 44.578125 48.1875 50.953125 41.515625 
Q 57.328125 34.859375 57.328125 23.390625 
Q 57.328125 12.15625 50.6875 5.359375 
Q 44.046875 -1.421875 33.015625 -1.421875 
Q 20.359375 -1.421875 13.671875 8.265625 
Q 6.984375 17.96875 6.984375 36.375 
Q 6.984375 53.65625 15.1875 63.9375 
Q 23.390625 74.21875 37.203125 74.21875 
Q 40.921875 74.21875 44.703125 73.484375 
Q 48.484375 72.75 52.59375 71.296875 
z
" id="DejaVuSans-54"/>
       </defs>
       <use xlink:href="#DejaVuSans-54"/>
      </g>
     </g>
    </g>
    <g id="ytick_5">
     <g id="line2d_14">
      <g>
       <use style="stroke:#000000;stroke-width:0.8;" x="48.96" xlink:href="#m0e551114ed" y="49.808925"/>
      </g>
     </g>
     <g id="text_14">
      <!-- 8 -->
      <g transform="translate(35.5975 53.608144)scale(0.1 -0.1)">
       <defs>
        <path d="M 31.78125 34.625 
Q 24.75 34.625 20.71875 30.859375 
Q 16.703125 27.09375 16.703125 20.515625 
Q 16.703125 13.921875 20.71875 10.15625 
Q 24.75 6.390625 31.78125 6.390625 
Q 38.8125 6.390625 42.859375 10.171875 
Q 46.921875 13.96875 46.921875 20.515625 
Q 46.921875 27.09375 42.890625 30.859375 
Q 38.875 34.625 31.78125 34.625 
z
M 21.921875 38.8125 
Q 15.578125 40.375 12.03125 44.71875 
Q 8.5 49.078125 8.5 55.328125 
Q 8.5 64.0625 14.71875 69.140625 
Q 20.953125 74.21875 31.78125 74.21875 
Q 42.671875 74.21875 48.875 69.140625 
Q 55.078125 64.0625 55.078125 55.328125 
Q 55.078125 49.078125 51.53125 44.71875 
Q 48 40.375 41.703125 38.8125 
Q 48.828125 37.15625 52.796875 32.3125 
Q 56.78125 27.484375 56.78125 20.515625 
Q 56.78125 9.90625 50.3125 4.234375 
Q 43.84375 -1.421875 31.78125 -1.421875 
Q 19.734375 -1.421875 13.25 4.234375 
Q 6.78125 9.90625 6.78125 20.515625 
Q 6.78125 27.484375 10.78125 32.3125 
Q 14.796875 37.15625 21.921875 38.8125 
z
M 18.3125 54.390625 
Q 18.3125 48.734375 21.84375 45.5625 
Q 25.390625 42.390625 31.78125 42.390625 
Q 38.140625 42.390625 41.71875 45.5625 
Q 45.3125 48.734375 45.3125 54.390625 
Q 45.3125 60.0625 41.71875 63.234375 
Q 38.140625 66.40625 31.78125 66.40625 
Q 25.390625 66.40625 21.84375 63.234375 
Q 18.3125 60.0625 18.3125 54.390625 
z
" id="DejaVuSans-56"/>
       </defs>
       <use xlink:href="#DejaVuSans-56"/>
      </g>
     </g>
    </g>
    <g id="text_15">
     <!-- $E_m/E_{01}$ -->
     <g transform="translate(28.477969 120.932368)rotate(-90)scale(0.15 -0.15)">
      <defs>
       <path d="M 16.890625 72.90625 
L 62.984375 72.90625 
L 61.375 64.59375 
L 25.09375 64.59375 
L 20.90625 43.015625 
L 55.71875 43.015625 
L 54.109375 34.71875 
L 19.28125 34.71875 
L 14.203125 8.296875 
L 51.3125 8.296875 
L 49.703125 0 
L 2.6875 0 
z
" id="DejaVuSans-Oblique-69"/>
       <path d="M 89.796875 33.015625 
L 83.40625 0 
L 74.421875 0 
L 80.71875 32.71875 
Q 81.109375 34.8125 81.296875 36.328125 
Q 81.5 37.84375 81.5 38.921875 
Q 81.5 43.3125 79.046875 45.75 
Q 76.609375 48.1875 72.21875 48.1875 
Q 65.671875 48.1875 60.546875 43.28125 
Q 55.421875 38.375 53.90625 30.515625 
L 47.90625 0 
L 38.921875 0 
L 45.3125 32.71875 
Q 45.703125 34.515625 45.890625 36.046875 
Q 46.09375 37.59375 46.09375 38.8125 
Q 46.09375 43.265625 43.65625 45.71875 
Q 41.21875 48.1875 36.921875 48.1875 
Q 30.28125 48.1875 25.140625 43.28125 
Q 20.015625 38.375 18.5 30.515625 
L 12.5 0 
L 3.515625 0 
L 14.203125 54.6875 
L 23.1875 54.6875 
L 21.484375 46.1875 
Q 25.140625 50.984375 30.046875 53.484375 
Q 34.96875 56 40.578125 56 
Q 46.53125 56 50.359375 52.875 
Q 54.203125 49.75 54.984375 44.1875 
Q 59.078125 49.953125 64.46875 52.96875 
Q 69.875 56 75.875 56 
Q 82.90625 56 86.734375 51.953125 
Q 90.578125 47.90625 90.578125 40.484375 
Q 90.578125 38.875 90.375 36.9375 
Q 90.1875 35.015625 89.796875 33.015625 
z
" id="DejaVuSans-Oblique-109"/>
      </defs>
      <use transform="translate(0 0.09375)" xlink:href="#DejaVuSans-Oblique-69"/>
      <use transform="translate(63.183594 -16.3125)scale(0.7)" xlink:href="#DejaVuSans-Oblique-109"/>
      <use transform="translate(134.106445 0.09375)" xlink:href="#DejaVuSans-47"/>
      <use transform="translate(167.797852 0.09375)" xlink:href="#DejaVuSans-Oblique-69"/>
      <use transform="translate(230.981445 -16.3125)scale(0.7)" xlink:href="#DejaVuSans-48"/>
      <use transform="translate(275.517578 -16.3125)scale(0.7)" xlink:href="#DejaVuSans-49"/>
     </g>
    </g>
   </g>
   <g id="line2d_15">
    <path clip-path="url(#p55ec2c0a80)" d="M 48.96 156.481112 
L 51.845772 156.392438 
L 54.731543 156.089063 
L 57.617315 155.575265 
L 60.503086 154.859503 
L 63.86982 153.789801 
L 67.717515 152.315597 
L 74.931944 149.465418 
L 76.855792 148.973568 
L 78.298677 148.780245 
L 79.741563 148.766954 
L 81.184449 148.935664 
L 83.108297 149.402694 
L 85.513106 150.248846 
L 96.57523 154.529905 
L 99.941964 155.441647 
L 102.827735 156.008415 
L 105.713507 156.366378 
L 108.599279 156.510389 
L 111.48505 156.438569 
L 114.370822 156.151854 
L 117.256593 155.654217 
L 120.142365 154.953674 
L 123.509098 153.89955 
L 127.356794 152.437416 
L 134.571222 149.560113 
L 136.49507 149.0378 
L 138.418918 148.778493 
L 139.861804 148.794072 
L 141.304689 148.989639 
L 143.228537 149.48414 
L 145.633347 150.349125 
L 156.214509 154.458186 
L 159.581242 155.388055 
L 162.467014 155.971646 
L 165.352786 156.347072 
L 168.238557 156.508857 
L 171.124329 156.454872 
L 174.0101 156.185812 
L 176.895872 155.705367 
L 179.781643 155.021152 
L 183.148377 153.984078 
L 186.996072 152.536188 
L 194.691463 149.48414 
L 196.615311 148.989639 
L 198.058196 148.794072 
L 199.501082 148.778493 
L 200.943968 148.94508 
L 202.867816 149.409783 
L 205.272625 150.253897 
L 216.334749 154.531438 
L 219.701483 155.442701 
L 222.587255 156.009113 
L 225.473026 156.366747 
L 228.358798 156.510441 
L 231.244569 156.438307 
L 234.130341 156.151268 
L 237.016112 155.653285 
L 239.901884 154.952358 
L 243.268617 153.897692 
L 247.116313 152.434692 
L 254.811703 149.402694 
L 256.735551 148.935664 
L 258.178437 148.766954 
L 259.621323 148.780245 
L 261.064208 148.973568 
L 262.988056 149.465418 
L 265.392866 150.327784 
L 275.974028 154.430217 
L 279.340762 155.358544 
L 282.226533 155.940861 
L 285.112305 156.315027 
L 287.998076 156.475541 
L 288.96 156.481112 
L 288.96 156.481112 
" style="fill:none;stroke:#1f77b4;stroke-linecap:square;stroke-width:2;"/>
   </g>
   <g id="line2d_16">
    <path clip-path="url(#p55ec2c0a80)" d="M 48.96 102.707715 
L 49.440962 102.749063 
L 50.402886 104.076089 
L 56.655391 113.924576 
L 60.022124 118.756926 
L 63.388858 123.196369 
L 66.274629 126.656176 
L 69.160401 129.746322 
L 71.56521 131.975844 
L 73.489058 133.470695 
L 74.931944 134.378808 
L 76.37483 135.062919 
L 77.817715 135.483409 
L 79.260601 135.609196 
L 80.703487 135.429786 
L 82.146373 134.960108 
L 83.589259 134.233748 
L 85.032144 133.290615 
L 86.955992 131.758508 
L 89.360802 129.493143 
L 91.765611 126.917036 
L 94.651383 123.486141 
L 97.537154 119.731852 
L 100.903888 114.981972 
L 104.270621 109.86403 
L 108.599279 103.017086 
L 109.08024 102.670108 
L 109.561202 103.025724 
L 111.004088 105.243456 
L 115.813707 112.845754 
L 119.180441 117.758217 
L 122.547174 122.284908 
L 125.432946 125.82863 
L 128.318717 129.018 
L 130.723527 131.351165 
L 132.647375 132.951747 
L 134.571222 134.25017 
L 136.014108 134.975605 
L 137.456994 135.443998 
L 138.89988 135.621848 
L 140.342766 135.494403 
L 141.785651 135.072367 
L 143.228537 134.386953 
L 144.671423 133.477824 
L 146.595271 131.982013 
L 149.00008 129.751758 
L 151.40489 127.203685 
L 154.290661 123.801071 
L 157.176433 120.071692 
L 160.543166 115.348339 
L 163.9099 110.254594 
L 168.719519 102.777377 
L 169.200481 102.777377 
L 170.162405 104.084081 
L 176.41491 113.929452 
L 179.781643 118.761692 
L 183.148377 123.201163 
L 186.034148 126.661158 
L 188.91992 129.751758 
L 191.324729 131.982013 
L 193.248577 133.477824 
L 194.691463 134.386953 
L 196.134349 135.072367 
L 197.577234 135.494403 
L 199.02012 135.621848 
L 200.463006 135.443998 
L 201.905892 134.975605 
L 203.348778 134.25017 
L 204.791663 133.307618 
L 206.715511 131.775856 
L 209.120321 129.51045 
L 211.52513 126.933986 
L 214.410902 123.502429 
L 217.296673 119.747334 
L 220.663407 114.996411 
L 224.03014 109.877338 
L 228.358798 103.025724 
L 228.83976 102.670108 
L 229.320721 103.017086 
L 230.763607 105.231384 
L 235.573226 112.831788 
L 238.93996 117.743171 
L 242.306693 122.268876 
L 245.192465 125.811878 
L 248.078236 129.000744 
L 250.483046 131.333791 
L 252.406894 132.934617 
L 254.330741 134.233748 
L 255.773627 134.960108 
L 257.216513 135.429786 
L 258.659399 135.609196 
L 260.102285 135.483409 
L 261.54517 135.062919 
L 262.988056 134.378808 
L 264.430942 133.470695 
L 266.35479 131.975844 
L 268.759599 129.746322 
L 271.164409 127.198651 
L 274.05018 123.796258 
L 276.935952 120.066934 
L 280.302685 115.343508 
L 283.669419 110.249529 
L 288.479038 102.749063 
L 288.96 102.707715 
L 288.96 102.707715 
" style="fill:none;stroke:#ff7f0e;stroke-linecap:square;stroke-width:2;"/>
   </g>
   <g id="line2d_17">
    <path clip-path="url(#p55ec2c0a80)" d="M 48.96 100.947461 
L 49.440962 100.906679 
L 50.402886 99.537928 
L 52.807695 95.296776 
L 56.655391 88.020221 
L 60.503086 80.280291 
L 64.831743 71.038967 
L 69.160401 61.238497 
L 73.489058 50.882024 
L 77.817715 39.971483 
L 78.779639 37.47198 
L 79.260601 36.901092 
L 84.07022 49.165765 
L 88.398878 59.619955 
L 92.727535 69.518502 
L 97.056192 78.858533 
L 101.38485 87.634304 
L 105.232545 94.945485 
L 108.118317 100.017228 
L 108.599279 100.719652 
L 109.08024 101.073937 
L 109.561202 100.711343 
L 110.523126 99.213848 
L 113.408898 94.048212 
L 117.256593 86.678534 
L 121.104289 78.850979 
L 125.432946 69.512466 
L 129.761603 59.615444 
L 134.090261 49.162783 
L 138.418918 38.156367 
L 138.89988 36.899878 
L 139.380842 37.531589 
L 144.190461 49.762358 
L 148.519118 60.185565 
L 152.847776 70.053006 
L 157.176433 79.361719 
L 161.50509 88.105666 
L 165.352786 95.386359 
L 167.757595 99.627675 
L 168.719519 100.977238 
L 169.200481 100.977238 
L 170.162405 99.627675 
L 172.567214 95.386359 
L 176.41491 88.105666 
L 180.262605 80.361326 
L 184.591263 71.11497 
L 188.91992 61.309434 
L 193.248577 50.947875 
L 197.577234 40.032234 
L 198.539158 37.531589 
L 199.02012 36.899878 
L 203.829739 49.162783 
L 208.158397 59.615444 
L 212.487054 69.512466 
L 216.815711 78.850979 
L 221.144369 87.625246 
L 224.992064 94.935152 
L 227.877836 100.006971 
L 228.358798 100.711343 
L 228.83976 101.073937 
L 229.320721 100.719652 
L 230.282645 99.224537 
L 233.168417 94.058397 
L 237.016112 86.687426 
L 240.863808 78.858533 
L 245.192465 69.518502 
L 249.521122 59.619955 
L 253.84978 49.165765 
L 258.178437 38.157814 
L 258.659399 36.901092 
L 259.140361 37.47198 
L 263.94998 49.697074 
L 268.278637 60.115193 
L 272.607295 69.977565 
L 276.935952 79.28124 
L 281.264609 88.020221 
L 285.112305 95.296776 
L 287.517114 99.537928 
L 288.479038 100.906679 
L 288.96 100.947461 
L 288.96 100.947461 
" style="fill:none;stroke:#2ca02c;stroke-linecap:square;stroke-width:2;"/>
   </g>
   <g id="patch_3">
    <path d="M 48.96 169.654737 
L 48.96 23.76 
" style="fill:none;stroke:#000000;stroke-linecap:square;stroke-linejoin:miter;stroke-width:0.8;"/>
   </g>
   <g id="patch_4">
    <path d="M 288.96 169.654737 
L 288.96 23.76 
" style="fill:none;stroke:#000000;stroke-linecap:square;stroke-linejoin:miter;stroke-width:0.8;"/>
   </g>
   <g id="patch_5">
    <path d="M 48.96 169.654737 
L 288.96 169.654737 
" style="fill:none;stroke:#000000;stroke-linecap:square;stroke-linejoin:miter;stroke-width:0.8;"/>
   </g>
   <g id="patch_6">
    <path d="M 48.96 23.76 
L 288.96 23.76 
" style="fill:none;stroke:#000000;stroke-linecap:square;stroke-linejoin:miter;stroke-width:0.8;"/>
   </g>
   <g id="text_16">
    <!-- $E_J/E_C = 1$ -->
    <g transform="translate(135.2 17.76)scale(0.16 -0.16)">
     <defs>
      <path d="M 16.703125 72.90625 
L 26.609375 72.90625 
L 13.375 5.078125 
Q 10.796875 -8.15625 4.65625 -14.078125 
Q -1.46875 -20.015625 -12.5 -20.015625 
L -16.40625 -20.015625 
L -14.796875 -11.71875 
L -11.71875 -11.71875 
Q -5.125 -11.71875 -1.703125 -7.953125 
Q 1.703125 -4.203125 3.515625 5.078125 
z
" id="DejaVuSans-Oblique-74"/>
      <path d="M 69.484375 67.28125 
L 67.484375 56.890625 
Q 62.796875 61.625 57.546875 63.921875 
Q 52.296875 66.21875 46.1875 66.21875 
Q 37.84375 66.21875 31.515625 62.203125 
Q 25.203125 58.203125 20.609375 50 
Q 17.671875 44.734375 16.125 38.84375 
Q 14.59375 32.953125 14.59375 27 
Q 14.59375 17.046875 19.75 11.8125 
Q 24.90625 6.59375 34.71875 6.59375 
Q 41.5 6.59375 47.75 8.765625 
Q 54 10.9375 59.90625 15.28125 
L 57.625 3.609375 
Q 51.8125 1.125 45.875 -0.140625 
Q 39.9375 -1.421875 33.984375 -1.421875 
Q 19.96875 -1.421875 12.078125 6.1875 
Q 4.203125 13.8125 4.203125 27.390625 
Q 4.203125 36.078125 7.203125 44.46875 
Q 10.203125 52.875 15.828125 59.8125 
Q 21.78125 67.1875 29.421875 70.703125 
Q 37.0625 74.21875 47.21875 74.21875 
Q 53.46875 74.21875 59.0625 72.484375 
Q 64.65625 70.75 69.484375 67.28125 
z
" id="DejaVuSans-Oblique-67"/>
      <path d="M 10.59375 45.40625 
L 73.1875 45.40625 
L 73.1875 37.203125 
L 10.59375 37.203125 
z
M 10.59375 25.484375 
L 73.1875 25.484375 
L 73.1875 17.1875 
L 10.59375 17.1875 
z
" id="DejaVuSans-61"/>
     </defs>
     <use transform="translate(0 0.09375)" xlink:href="#DejaVuSans-Oblique-69"/>
     <use transform="translate(63.183594 -16.3125)scale(0.7)" xlink:href="#DejaVuSans-Oblique-74"/>
     <use transform="translate(86.5625 0.09375)" xlink:href="#DejaVuSans-47"/>
     <use transform="translate(120.253906 0.09375)" xlink:href="#DejaVuSans-Oblique-69"/>
     <use transform="translate(183.4375 -16.3125)scale(0.7)" xlink:href="#DejaVuSans-Oblique-67"/>
     <use transform="translate(254.53125 0.09375)" xlink:href="#DejaVuSans-61"/>
     <use transform="translate(357.802734 0.09375)" xlink:href="#DejaVuSans-49"/>
    </g>
   </g>
  </g>
  <g id="axes_2">
   <g id="patch_7">
    <path d="M 327.36 169.654737 
L 567.36 169.654737 
L 567.36 23.76 
L 327.36 23.76 
z
" style="fill:#ffffff;"/>
   </g>
   <g id="matplotlib.axis_3">
    <g id="xtick_10">
     <g id="line2d_18">
      <g>
       <use style="stroke:#000000;stroke-width:0.8;" x="327.36" xlink:href="#maa15ee8c19" y="169.654737"/>
      </g>
     </g>
     <g id="text_17">
      <!-- $-2$ -->
      <g transform="translate(319.96 184.253174)scale(0.1 -0.1)">
       <use transform="translate(0 0.78125)" xlink:href="#DejaVuSans-8722"/>
       <use transform="translate(83.789062 0.78125)" xlink:href="#DejaVuSans-50"/>
      </g>
     </g>
    </g>
    <g id="xtick_11">
     <g id="line2d_19">
      <g>
       <use style="stroke:#000000;stroke-width:0.8;" x="357.36" xlink:href="#maa15ee8c19" y="169.654737"/>
      </g>
     </g>
     <g id="text_18">
      <!-- $-3/2$ -->
      <g transform="translate(345.26 184.253174)scale(0.1 -0.1)">
       <use transform="translate(0 0.78125)" xlink:href="#DejaVuSans-8722"/>
       <use transform="translate(83.789062 0.78125)" xlink:href="#DejaVuSans-51"/>
       <use transform="translate(147.412109 0.78125)" xlink:href="#DejaVuSans-47"/>
       <use transform="translate(177.478516 0.78125)" xlink:href="#DejaVuSans-50"/>
      </g>
     </g>
    </g>
    <g id="xtick_12">
     <g id="line2d_20">
      <g>
       <use style="stroke:#000000;stroke-width:0.8;" x="387.36" xlink:href="#maa15ee8c19" y="169.654737"/>
      </g>
     </g>
     <g id="text_19">
      <!-- $-1$ -->
      <g transform="translate(379.96 184.253174)scale(0.1 -0.1)">
       <use transform="translate(0 0.09375)" xlink:href="#DejaVuSans-8722"/>
       <use transform="translate(83.789062 0.09375)" xlink:href="#DejaVuSans-49"/>
      </g>
     </g>
    </g>
    <g id="xtick_13">
     <g id="line2d_21">
      <g>
       <use style="stroke:#000000;stroke-width:0.8;" x="417.36" xlink:href="#maa15ee8c19" y="169.654737"/>
      </g>
     </g>
     <g id="text_20">
      <!-- $-1/2$ -->
      <g transform="translate(405.26 184.253174)scale(0.1 -0.1)">
       <use transform="translate(0 0.78125)" xlink:href="#DejaVuSans-8722"/>
       <use transform="translate(83.789062 0.78125)" xlink:href="#DejaVuSans-49"/>
       <use transform="translate(147.412109 0.78125)" xlink:href="#DejaVuSans-47"/>
       <use transform="translate(177.478516 0.78125)" xlink:href="#DejaVuSans-50"/>
      </g>
     </g>
    </g>
    <g id="xtick_14">
     <g id="line2d_22">
      <g>
       <use style="stroke:#000000;stroke-width:0.8;" x="447.36" xlink:href="#maa15ee8c19" y="169.654737"/>
      </g>
     </g>
     <g id="text_21">
      <!-- $0$ -->
      <g transform="translate(444.16 184.253174)scale(0.1 -0.1)">
       <use transform="translate(0 0.78125)" xlink:href="#DejaVuSans-48"/>
      </g>
     </g>
    </g>
    <g id="xtick_15">
     <g id="line2d_23">
      <g>
       <use style="stroke:#000000;stroke-width:0.8;" x="477.36" xlink:href="#maa15ee8c19" y="169.654737"/>
      </g>
     </g>
     <g id="text_22">
      <!-- $1/2$ -->
      <g transform="translate(469.46 184.253174)scale(0.1 -0.1)">
       <use transform="translate(0 0.78125)" xlink:href="#DejaVuSans-49"/>
       <use transform="translate(63.623047 0.78125)" xlink:href="#DejaVuSans-47"/>
       <use transform="translate(93.689453 0.78125)" xlink:href="#DejaVuSans-50"/>
      </g>
     </g>
    </g>
    <g id="xtick_16">
     <g id="line2d_24">
      <g>
       <use style="stroke:#000000;stroke-width:0.8;" x="507.36" xlink:href="#maa15ee8c19" y="169.654737"/>
      </g>
     </g>
     <g id="text_23">
      <!-- $1$ -->
      <g transform="translate(504.16 184.253174)scale(0.1 -0.1)">
       <use transform="translate(0 0.09375)" xlink:href="#DejaVuSans-49"/>
      </g>
     </g>
    </g>
    <g id="xtick_17">
     <g id="line2d_25">
      <g>
       <use style="stroke:#000000;stroke-width:0.8;" x="537.36" xlink:href="#maa15ee8c19" y="169.654737"/>
      </g>
     </g>
     <g id="text_24">
      <!-- $3/2$ -->
      <g transform="translate(529.46 184.253174)scale(0.1 -0.1)">
       <use transform="translate(0 0.78125)" xlink:href="#DejaVuSans-51"/>
       <use transform="translate(63.623047 0.78125)" xlink:href="#DejaVuSans-47"/>
       <use transform="translate(93.689453 0.78125)" xlink:href="#DejaVuSans-50"/>
      </g>
     </g>
    </g>
    <g id="xtick_18">
     <g id="line2d_26">
      <g>
       <use style="stroke:#000000;stroke-width:0.8;" x="567.36" xlink:href="#maa15ee8c19" y="169.654737"/>
      </g>
     </g>
     <g id="text_25">
      <!-- $2$ -->
      <g transform="translate(564.16 184.253174)scale(0.1 -0.1)">
       <use transform="translate(0 0.78125)" xlink:href="#DejaVuSans-50"/>
      </g>
     </g>
    </g>
   </g>
   <g id="matplotlib.axis_4">
    <g id="ytick_6">
     <g id="line2d_27">
      <g>
       <use style="stroke:#000000;stroke-width:0.8;" x="327.36" xlink:href="#m0e551114ed" y="154.312666"/>
      </g>
     </g>
     <g id="text_26">
      <!-- −1 -->
      <g transform="translate(305.617812 158.111885)scale(0.1 -0.1)">
       <use xlink:href="#DejaVuSans-8722"/>
       <use x="83.789062" xlink:href="#DejaVuSans-49"/>
      </g>
     </g>
    </g>
    <g id="ytick_7">
     <g id="line2d_28">
      <g>
       <use style="stroke:#000000;stroke-width:0.8;" x="327.36" xlink:href="#m0e551114ed" y="121.693038"/>
      </g>
     </g>
     <g id="text_27">
      <!-- 0 -->
      <g transform="translate(313.9975 125.492257)scale(0.1 -0.1)">
       <use xlink:href="#DejaVuSans-48"/>
      </g>
     </g>
    </g>
    <g id="ytick_8">
     <g id="line2d_29">
      <g>
       <use style="stroke:#000000;stroke-width:0.8;" x="327.36" xlink:href="#m0e551114ed" y="89.07341"/>
      </g>
     </g>
     <g id="text_28">
      <!-- 1 -->
      <g transform="translate(313.9975 92.872629)scale(0.1 -0.1)">
       <use xlink:href="#DejaVuSans-49"/>
      </g>
     </g>
    </g>
    <g id="ytick_9">
     <g id="line2d_30">
      <g>
       <use style="stroke:#000000;stroke-width:0.8;" x="327.36" xlink:href="#m0e551114ed" y="56.453782"/>
      </g>
     </g>
     <g id="text_29">
      <!-- 2 -->
      <g transform="translate(313.9975 60.253)scale(0.1 -0.1)">
       <use xlink:href="#DejaVuSans-50"/>
      </g>
     </g>
    </g>
    <g id="ytick_10">
     <g id="line2d_31">
      <g>
       <use style="stroke:#000000;stroke-width:0.8;" x="327.36" xlink:href="#m0e551114ed" y="23.834153"/>
      </g>
     </g>
     <g id="text_30">
      <!-- 3 -->
      <g transform="translate(313.9975 27.633372)scale(0.1 -0.1)">
       <use xlink:href="#DejaVuSans-51"/>
      </g>
     </g>
    </g>
   </g>
   <g id="line2d_32">
    <path clip-path="url(#p824e541776)" d="M 327.36 137.014424 
L 336.498277 136.914251 
L 360.065411 136.500422 
L 369.684649 136.689218 
L 385.556393 137.028022 
L 394.694669 136.963382 
L 422.590461 136.537445 
L 434.614509 136.834294 
L 445.676633 137.031192 
L 454.81491 136.96004 
L 481.748778 136.52696 
L 492.810902 136.786901 
L 505.315912 137.028358 
L 514.454188 136.962095 
L 542.34998 136.52834 
L 554.374028 136.820141 
L 565.436152 137.011584 
L 567.36 137.014424 
L 567.36 137.014424 
" style="fill:none;stroke:#1f77b4;stroke-linecap:square;stroke-width:2;"/>
   </g>
   <g id="line2d_33">
    <path clip-path="url(#p824e541776)" d="M 327.36 96.817928 
L 329.283848 96.913978 
L 331.207695 97.237104 
L 333.612505 97.887482 
L 336.979238 99.057544 
L 344.193667 101.624898 
L 347.560401 102.580898 
L 350.927134 103.29355 
L 353.812906 103.684759 
L 356.698677 103.859921 
L 359.584449 103.813769 
L 362.47022 103.547719 
L 365.355992 103.069953 
L 368.722725 102.26616 
L 372.089459 101.236045 
L 376.899078 99.509214 
L 381.708697 97.823532 
L 384.113507 97.201064 
L 386.037355 96.909134 
L 387.961202 96.848813 
L 389.88505 97.030085 
L 391.808898 97.424116 
L 394.213707 98.133634 
L 398.542365 99.694103 
L 403.832946 101.557223 
L 407.199679 102.528437 
L 410.566413 103.259626 
L 413.452184 103.668337 
L 416.337956 103.861782 
L 419.223727 103.834096 
L 422.109499 103.586113 
L 424.995271 103.12542 
L 428.362004 102.339387 
L 431.728737 101.323362 
L 436.538357 99.605532 
L 441.347976 97.903302 
L 443.752786 97.256896 
L 445.676633 96.937881 
L 447.600481 96.846494 
L 449.524329 96.997715 
L 451.448176 97.367168 
L 453.852986 98.056426 
L 457.700681 99.42643 
L 463.472224 101.480543 
L 466.838958 102.466876 
L 470.205691 103.21644 
L 473.091463 103.642506 
L 475.977234 103.854114 
L 478.863006 103.844823 
L 481.748778 103.614909 
L 484.634549 103.171377 
L 488.001283 102.403344 
L 491.368016 101.401834 
L 495.696673 99.872872 
L 501.468216 97.827401 
L 503.873026 97.203522 
L 505.796874 96.910234 
L 507.720721 96.848443 
L 509.644569 97.028285 
L 511.568417 97.421051 
L 513.973226 98.129298 
L 518.301884 99.688224 
L 523.592465 101.550256 
L 526.959198 102.521041 
L 530.325932 103.251936 
L 533.211703 103.660473 
L 536.097475 103.853793 
L 538.983246 103.826003 
L 541.869018 103.577905 
L 544.75479 103.117043 
L 548.121523 102.330667 
L 551.488257 101.314008 
L 556.297876 99.594246 
L 561.107495 97.887482 
L 563.512305 97.237104 
L 565.436152 96.913978 
L 567.36 96.817928 
L 567.36 96.817928 
" style="fill:none;stroke:#ff7f0e;stroke-linecap:square;stroke-width:2;"/>
   </g>
   <g id="line2d_34">
    <path clip-path="url(#p824e541776)" d="M 327.36 81.674609 
L 328.802886 81.596126 
L 330.245772 81.296165 
L 331.688657 80.790752 
L 333.612505 79.837241 
L 335.536353 78.617254 
L 337.941162 76.794015 
L 340.826934 74.264158 
L 343.712705 71.44038 
L 347.079439 67.845797 
L 350.927134 63.415346 
L 356.217715 57.161687 
L 357.179639 56.439388 
L 357.660601 56.379628 
L 358.141563 56.575237 
L 359.103487 57.433497 
L 361.027335 59.675451 
L 366.798878 66.528649 
L 370.646573 70.730866 
L 374.013307 74.075405 
L 376.899078 76.632349 
L 379.303888 78.483857 
L 381.227735 79.731828 
L 383.151583 80.719338 
L 384.594469 81.25442 
L 386.037355 81.587048 
L 387.48024 81.699854 
L 388.923126 81.58639 
L 390.366012 81.253166 
L 391.808898 80.717594 
L 393.732745 79.72962 
L 395.656593 78.481387 
L 398.061403 76.629777 
L 400.947174 74.072942 
L 404.313908 70.728733 
L 407.680641 67.071615 
L 412.009299 62.006465 
L 415.856994 57.436086 
L 416.818918 56.58335 
L 417.29988 56.393538 
L 417.780842 56.459847 
L 418.261804 56.754615 
L 419.223727 57.69805 
L 422.109499 61.135954 
L 426.919118 66.802812 
L 430.766814 70.982083 
L 434.133547 74.301655 
L 437.019319 76.83144 
L 439.424128 78.65385 
L 441.347976 79.872446 
L 443.271824 80.823742 
L 444.714709 81.326913 
L 446.157595 81.624198 
L 447.600481 81.699731 
L 449.043367 81.54916 
L 450.486253 81.181029 
L 451.929138 80.614118 
L 453.852986 79.590683 
L 455.776834 78.313661 
L 458.181643 76.4334 
L 461.067415 73.849617 
L 464.434148 70.480414 
L 468.281844 66.255659 
L 472.610501 61.135954 
L 475.977234 57.189641 
L 476.939158 56.459847 
L 477.42012 56.393538 
L 477.901082 56.58335 
L 478.863006 57.436086 
L 480.786854 59.675464 
L 486.558397 66.527075 
L 490.406092 70.728733 
L 493.772826 74.072942 
L 496.658597 76.629777 
L 499.063407 78.481387 
L 500.987255 79.72962 
L 502.911102 80.717594 
L 504.353988 81.253166 
L 505.796874 81.58639 
L 507.23976 81.699854 
L 508.682645 81.587048 
L 510.125531 81.25442 
L 511.568417 80.719338 
L 513.492265 79.731828 
L 515.416112 78.483857 
L 517.820922 76.632349 
L 520.706693 74.075405 
L 524.073427 70.730866 
L 527.44016 67.073269 
L 531.768818 62.007221 
L 535.616513 57.433497 
L 536.578437 56.575237 
L 537.059399 56.379628 
L 537.540361 56.439388 
L 538.021323 56.729401 
L 538.983246 57.668524 
L 541.869018 61.103095 
L 546.678637 66.767443 
L 550.526333 70.945289 
L 553.893066 74.264158 
L 556.778838 76.794015 
L 559.183647 78.617254 
L 561.107495 79.837241 
L 563.031343 80.790752 
L 564.474228 81.296165 
L 565.917114 81.596126 
L 567.36 81.674609 
L 567.36 81.674609 
" style="fill:none;stroke:#2ca02c;stroke-linecap:square;stroke-width:2;"/>
   </g>
   <g id="patch_8">
    <path d="M 327.36 169.654737 
L 327.36 23.76 
" style="fill:none;stroke:#000000;stroke-linecap:square;stroke-linejoin:miter;stroke-width:0.8;"/>
   </g>
   <g id="patch_9">
    <path d="M 567.36 169.654737 
L 567.36 23.76 
" style="fill:none;stroke:#000000;stroke-linecap:square;stroke-linejoin:miter;stroke-width:0.8;"/>
   </g>
   <g id="patch_10">
    <path d="M 327.36 169.654737 
L 567.36 169.654737 
" style="fill:none;stroke:#000000;stroke-linecap:square;stroke-linejoin:miter;stroke-width:0.8;"/>
   </g>
   <g id="patch_11">
    <path d="M 327.36 23.76 
L 567.36 23.76 
" style="fill:none;stroke:#000000;stroke-linecap:square;stroke-linejoin:miter;stroke-width:0.8;"/>
   </g>
   <g id="text_31">
    <!-- $E_J/E_C = 5$ -->
    <g transform="translate(413.6 17.76)scale(0.16 -0.16)">
     <defs>
      <path d="M 10.796875 72.90625 
L 49.515625 72.90625 
L 49.515625 64.59375 
L 19.828125 64.59375 
L 19.828125 46.734375 
Q 21.96875 47.46875 24.109375 47.828125 
Q 26.265625 48.1875 28.421875 48.1875 
Q 40.625 48.1875 47.75 41.5 
Q 54.890625 34.8125 54.890625 23.390625 
Q 54.890625 11.625 47.5625 5.09375 
Q 40.234375 -1.421875 26.90625 -1.421875 
Q 22.3125 -1.421875 17.546875 -0.640625 
Q 12.796875 0.140625 7.71875 1.703125 
L 7.71875 11.625 
Q 12.109375 9.234375 16.796875 8.0625 
Q 21.484375 6.890625 26.703125 6.890625 
Q 35.15625 6.890625 40.078125 11.328125 
Q 45.015625 15.765625 45.015625 23.390625 
Q 45.015625 31 40.078125 35.4375 
Q 35.15625 39.890625 26.703125 39.890625 
Q 22.75 39.890625 18.8125 39.015625 
Q 14.890625 38.140625 10.796875 36.28125 
z
" id="DejaVuSans-53"/>
     </defs>
     <use transform="translate(0 0.09375)" xlink:href="#DejaVuSans-Oblique-69"/>
     <use transform="translate(63.183594 -16.3125)scale(0.7)" xlink:href="#DejaVuSans-Oblique-74"/>
     <use transform="translate(86.5625 0.09375)" xlink:href="#DejaVuSans-47"/>
     <use transform="translate(120.253906 0.09375)" xlink:href="#DejaVuSans-Oblique-69"/>
     <use transform="translate(183.4375 -16.3125)scale(0.7)" xlink:href="#DejaVuSans-Oblique-67"/>
     <use transform="translate(254.53125 0.09375)" xlink:href="#DejaVuSans-61"/>
     <use transform="translate(357.802734 0.09375)" xlink:href="#DejaVuSans-53"/>
    </g>
   </g>
  </g>
  <g id="axes_3">
   <g id="patch_12">
    <path d="M 48.96 356.4 
L 288.96 356.4 
L 288.96 210.505263 
L 48.96 210.505263 
z
" style="fill:#ffffff;"/>
   </g>
   <g id="matplotlib.axis_5">
    <g id="xtick_19">
     <g id="line2d_35">
      <g>
       <use style="stroke:#000000;stroke-width:0.8;" x="48.96" xlink:href="#maa15ee8c19" y="356.4"/>
      </g>
     </g>
     <g id="text_32">
      <!-- $-2$ -->
      <g transform="translate(41.56 370.998438)scale(0.1 -0.1)">
       <use transform="translate(0 0.78125)" xlink:href="#DejaVuSans-8722"/>
       <use transform="translate(83.789062 0.78125)" xlink:href="#DejaVuSans-50"/>
      </g>
     </g>
    </g>
    <g id="xtick_20">
     <g id="line2d_36">
      <g>
       <use style="stroke:#000000;stroke-width:0.8;" x="78.96" xlink:href="#maa15ee8c19" y="356.4"/>
      </g>
     </g>
     <g id="text_33">
      <!-- $-3/2$ -->
      <g transform="translate(66.86 370.998438)scale(0.1 -0.1)">
       <use transform="translate(0 0.78125)" xlink:href="#DejaVuSans-8722"/>
       <use transform="translate(83.789062 0.78125)" xlink:href="#DejaVuSans-51"/>
       <use transform="translate(147.412109 0.78125)" xlink:href="#DejaVuSans-47"/>
       <use transform="translate(177.478516 0.78125)" xlink:href="#DejaVuSans-50"/>
      </g>
     </g>
    </g>
    <g id="xtick_21">
     <g id="line2d_37">
      <g>
       <use style="stroke:#000000;stroke-width:0.8;" x="108.96" xlink:href="#maa15ee8c19" y="356.4"/>
      </g>
     </g>
     <g id="text_34">
      <!-- $-1$ -->
      <g transform="translate(101.56 370.998438)scale(0.1 -0.1)">
       <use transform="translate(0 0.09375)" xlink:href="#DejaVuSans-8722"/>
       <use transform="translate(83.789062 0.09375)" xlink:href="#DejaVuSans-49"/>
      </g>
     </g>
    </g>
    <g id="xtick_22">
     <g id="line2d_38">
      <g>
       <use style="stroke:#000000;stroke-width:0.8;" x="138.96" xlink:href="#maa15ee8c19" y="356.4"/>
      </g>
     </g>
     <g id="text_35">
      <!-- $-1/2$ -->
      <g transform="translate(126.86 370.998438)scale(0.1 -0.1)">
       <use transform="translate(0 0.78125)" xlink:href="#DejaVuSans-8722"/>
       <use transform="translate(83.789062 0.78125)" xlink:href="#DejaVuSans-49"/>
       <use transform="translate(147.412109 0.78125)" xlink:href="#DejaVuSans-47"/>
       <use transform="translate(177.478516 0.78125)" xlink:href="#DejaVuSans-50"/>
      </g>
     </g>
    </g>
    <g id="xtick_23">
     <g id="line2d_39">
      <g>
       <use style="stroke:#000000;stroke-width:0.8;" x="168.96" xlink:href="#maa15ee8c19" y="356.4"/>
      </g>
     </g>
     <g id="text_36">
      <!-- $0$ -->
      <g transform="translate(165.76 370.998438)scale(0.1 -0.1)">
       <use transform="translate(0 0.78125)" xlink:href="#DejaVuSans-48"/>
      </g>
     </g>
    </g>
    <g id="xtick_24">
     <g id="line2d_40">
      <g>
       <use style="stroke:#000000;stroke-width:0.8;" x="198.96" xlink:href="#maa15ee8c19" y="356.4"/>
      </g>
     </g>
     <g id="text_37">
      <!-- $1/2$ -->
      <g transform="translate(191.06 370.998438)scale(0.1 -0.1)">
       <use transform="translate(0 0.78125)" xlink:href="#DejaVuSans-49"/>
       <use transform="translate(63.623047 0.78125)" xlink:href="#DejaVuSans-47"/>
       <use transform="translate(93.689453 0.78125)" xlink:href="#DejaVuSans-50"/>
      </g>
     </g>
    </g>
    <g id="xtick_25">
     <g id="line2d_41">
      <g>
       <use style="stroke:#000000;stroke-width:0.8;" x="228.96" xlink:href="#maa15ee8c19" y="356.4"/>
      </g>
     </g>
     <g id="text_38">
      <!-- $1$ -->
      <g transform="translate(225.76 370.998438)scale(0.1 -0.1)">
       <use transform="translate(0 0.09375)" xlink:href="#DejaVuSans-49"/>
      </g>
     </g>
    </g>
    <g id="xtick_26">
     <g id="line2d_42">
      <g>
       <use style="stroke:#000000;stroke-width:0.8;" x="258.96" xlink:href="#maa15ee8c19" y="356.4"/>
      </g>
     </g>
     <g id="text_39">
      <!-- $3/2$ -->
      <g transform="translate(251.06 370.998438)scale(0.1 -0.1)">
       <use transform="translate(0 0.78125)" xlink:href="#DejaVuSans-51"/>
       <use transform="translate(63.623047 0.78125)" xlink:href="#DejaVuSans-47"/>
       <use transform="translate(93.689453 0.78125)" xlink:href="#DejaVuSans-50"/>
      </g>
     </g>
    </g>
    <g id="xtick_27">
     <g id="line2d_43">
      <g>
       <use style="stroke:#000000;stroke-width:0.8;" x="288.96" xlink:href="#maa15ee8c19" y="356.4"/>
      </g>
     </g>
     <g id="text_40">
      <!-- $2$ -->
      <g transform="translate(285.76 370.998438)scale(0.1 -0.1)">
       <use transform="translate(0 0.78125)" xlink:href="#DejaVuSans-50"/>
      </g>
     </g>
    </g>
    <g id="text_41">
     <!-- $n_g$ -->
     <g transform="translate(160.635 386.945313)scale(0.15 -0.15)">
      <defs>
       <path d="M 55.71875 33.015625 
L 49.3125 0 
L 40.28125 0 
L 46.6875 32.671875 
Q 47.125 34.96875 47.359375 36.71875 
Q 47.609375 38.484375 47.609375 39.5 
Q 47.609375 43.609375 45.015625 45.890625 
Q 42.4375 48.1875 37.796875 48.1875 
Q 30.5625 48.1875 25.34375 43.375 
Q 20.125 38.578125 18.5 30.328125 
L 12.5 0 
L 3.515625 0 
L 14.109375 54.6875 
L 23.09375 54.6875 
L 21.296875 46.09375 
Q 25.046875 50.828125 30.3125 53.40625 
Q 35.59375 56 41.40625 56 
Q 48.640625 56 52.609375 52.09375 
Q 56.59375 48.1875 56.59375 41.109375 
Q 56.59375 39.359375 56.375 37.359375 
Q 56.15625 35.359375 55.71875 33.015625 
z
" id="DejaVuSans-Oblique-110"/>
       <path d="M 59.625 54.6875 
L 50.296875 6.78125 
Q 47.609375 -7.125 40.015625 -13.953125 
Q 32.421875 -20.796875 19.578125 -20.796875 
Q 14.84375 -20.796875 10.78125 -20.09375 
Q 6.734375 -19.390625 3.21875 -17.921875 
L 4.890625 -9.1875 
Q 8.203125 -11.328125 11.90625 -12.34375 
Q 15.625 -13.375 19.828125 -13.375 
Q 28.375 -13.375 33.859375 -8.703125 
Q 39.359375 -4.046875 41.109375 4.6875 
L 41.890625 8.796875 
Q 38.140625 4.5 33.15625 2.25 
Q 28.171875 0 22.40625 0 
Q 14.109375 0 9.34375 5.484375 
Q 4.59375 10.984375 4.59375 20.609375 
Q 4.59375 28.171875 7.46875 35.421875 
Q 10.359375 42.671875 15.578125 48.296875 
Q 19.046875 52 23.65625 54 
Q 28.265625 56 33.296875 56 
Q 38.8125 56 42.90625 53.4375 
Q 47.015625 50.875 49.03125 46.1875 
L 50.59375 54.6875 
z
M 46.09375 34.625 
Q 46.09375 41.265625 42.96875 44.875 
Q 39.84375 48.484375 34.078125 48.484375 
Q 30.515625 48.484375 27.296875 47.0625 
Q 24.078125 45.65625 21.78125 43.109375 
Q 18.0625 38.921875 15.984375 33.234375 
Q 13.921875 27.546875 13.921875 21.484375 
Q 13.921875 14.75 17.0625 11.125 
Q 20.21875 7.515625 26.125 7.515625 
Q 34.671875 7.515625 40.375 15.25 
Q 46.09375 23 46.09375 34.625 
z
" id="DejaVuSans-Oblique-103"/>
      </defs>
      <use xlink:href="#DejaVuSans-Oblique-110"/>
      <use transform="translate(63.378906 -16.40625)scale(0.7)" xlink:href="#DejaVuSans-Oblique-103"/>
     </g>
    </g>
   </g>
   <g id="matplotlib.axis_6">
    <g id="ytick_11">
     <g id="line2d_44">
      <g>
       <use style="stroke:#000000;stroke-width:0.8;" x="48.96" xlink:href="#m0e551114ed" y="328.497537"/>
      </g>
     </g>
     <g id="text_42">
      <!-- −1 -->
      <g transform="translate(27.217813 332.296756)scale(0.1 -0.1)">
       <use xlink:href="#DejaVuSans-8722"/>
       <use x="83.789062" xlink:href="#DejaVuSans-49"/>
      </g>
     </g>
    </g>
    <g id="ytick_12">
     <g id="line2d_45">
      <g>
       <use style="stroke:#000000;stroke-width:0.8;" x="48.96" xlink:href="#m0e551114ed" y="291.692673"/>
      </g>
     </g>
     <g id="text_43">
      <!-- 0 -->
      <g transform="translate(35.5975 295.491891)scale(0.1 -0.1)">
       <use xlink:href="#DejaVuSans-48"/>
      </g>
     </g>
    </g>
    <g id="ytick_13">
     <g id="line2d_46">
      <g>
       <use style="stroke:#000000;stroke-width:0.8;" x="48.96" xlink:href="#m0e551114ed" y="254.887808"/>
      </g>
     </g>
     <g id="text_44">
      <!-- 1 -->
      <g transform="translate(35.5975 258.687027)scale(0.1 -0.1)">
       <use xlink:href="#DejaVuSans-49"/>
      </g>
     </g>
    </g>
    <g id="ytick_14">
     <g id="line2d_47">
      <g>
       <use style="stroke:#000000;stroke-width:0.8;" x="48.96" xlink:href="#m0e551114ed" y="218.082943"/>
      </g>
     </g>
     <g id="text_45">
      <!-- 2 -->
      <g transform="translate(35.5975 221.882162)scale(0.1 -0.1)">
       <use xlink:href="#DejaVuSans-50"/>
      </g>
     </g>
    </g>
    <g id="text_46">
     <!-- $E_m/E_{01}$ -->
     <g transform="translate(20.098281 307.677632)rotate(-90)scale(0.15 -0.15)">
      <use transform="translate(0 0.09375)" xlink:href="#DejaVuSans-Oblique-69"/>
      <use transform="translate(63.183594 -16.3125)scale(0.7)" xlink:href="#DejaVuSans-Oblique-109"/>
      <use transform="translate(134.106445 0.09375)" xlink:href="#DejaVuSans-47"/>
      <use transform="translate(167.797852 0.09375)" xlink:href="#DejaVuSans-Oblique-69"/>
      <use transform="translate(230.981445 -16.3125)scale(0.7)" xlink:href="#DejaVuSans-48"/>
      <use transform="translate(275.517578 -16.3125)scale(0.7)" xlink:href="#DejaVuSans-49"/>
     </g>
    </g>
   </g>
   <g id="line2d_48">
    <path clip-path="url(#p042e6b0650)" d="M 48.96 319.579985 
L 248.078236 319.558087 
L 285.593267 319.580205 
L 288.96 319.579985 
L 288.96 319.579985 
" style="fill:none;stroke:#1f77b4;stroke-linecap:square;stroke-width:2;"/>
   </g>
   <g id="line2d_49">
    <path clip-path="url(#p042e6b0650)" d="M 48.96 281.583074 
L 54.731543 281.688372 
L 62.426934 282.082345 
L 73.489058 282.644914 
L 79.741563 282.735036 
L 85.994068 282.606521 
L 94.170421 282.190445 
L 104.751583 281.663197 
L 110.523126 281.608122 
L 116.775631 281.791811 
L 138.89988 282.743248 
L 145.152385 282.638151 
L 152.847776 282.266701 
L 164.871824 281.660045 
L 170.643367 281.613371 
L 176.895872 281.804845 
L 198.539158 282.742931 
L 204.791663 282.645645 
L 212.487054 282.279755 
L 224.992064 281.651374 
L 230.763607 281.613169 
L 237.016112 281.812145 
L 258.178437 282.735036 
L 264.430942 282.644914 
L 271.645371 282.311307 
L 285.112305 281.629677 
L 288.96 281.583074 
L 288.96 281.583074 
" style="fill:none;stroke:#ff7f0e;stroke-linecap:square;stroke-width:2;"/>
   </g>
   <g id="line2d_50">
    <path clip-path="url(#p042e6b0650)" d="M 48.96 255.810693 
L 51.845772 255.701419 
L 54.731543 255.335889 
L 57.617315 254.727039 
L 60.503086 253.896135 
L 63.86982 252.686124 
L 68.198477 250.856542 
L 73.97002 248.390601 
L 75.893868 247.769381 
L 77.817715 247.388456 
L 79.260601 247.310128 
L 80.703487 247.424017 
L 82.627335 247.844563 
L 85.032144 248.67874 
L 88.87984 250.336599 
L 94.651383 252.798384 
L 98.018116 253.991888 
L 100.903888 254.805155 
L 103.789659 255.394004 
L 106.675431 255.737917 
L 109.561202 255.824767 
L 112.446974 255.651468 
L 115.332745 255.224207 
L 118.218517 254.558008 
L 121.104289 253.676128 
L 124.471022 252.41779 
L 129.280641 250.338713 
L 133.609299 248.496882 
L 136.014108 247.721185 
L 137.937956 247.374554 
L 139.380842 247.326409 
L 140.823727 247.469721 
L 142.747575 247.921931 
L 145.152385 248.779762 
L 149.481042 250.662784 
L 154.290661 252.70741 
L 157.657395 253.917546 
L 160.543166 254.748258 
L 163.428938 255.356672 
L 166.314709 255.721568 
L 169.200481 255.830075 
L 172.086253 255.678318 
L 174.972024 255.271708 
L 177.857796 254.624552 
L 180.743567 253.759424 
L 184.110301 252.516665 
L 188.438958 250.662784 
L 193.729539 248.407995 
L 195.653387 247.784844 
L 197.577234 247.401406 
L 199.02012 247.320949 
L 200.463006 247.432734 
L 202.386854 247.850857 
L 204.791663 248.682852 
L 208.639359 250.338713 
L 214.410902 252.799154 
L 217.777635 253.99228 
L 220.663407 254.805353 
L 223.549178 255.394092 
L 226.43495 255.737946 
L 229.320721 255.824762 
L 232.206493 255.651424 
L 235.092265 255.22409 
L 237.978036 254.557755 
L 240.863808 253.675648 
L 244.230541 252.416872 
L 249.04016 250.336599 
L 253.368818 248.492405 
L 255.773627 247.71434 
L 257.697475 247.365153 
L 259.140361 247.31487 
L 260.583246 247.456096 
L 262.507094 247.905929 
L 264.911904 248.761613 
L 269.240561 250.642476 
L 274.05018 252.686124 
L 277.416914 253.896135 
L 280.302685 254.727039 
L 283.188457 255.335889 
L 286.074228 255.701419 
L 288.96 255.810693 
L 288.96 255.810693 
" style="fill:none;stroke:#2ca02c;stroke-linecap:square;stroke-width:2;"/>
   </g>
   <g id="patch_13">
    <path d="M 48.96 356.4 
L 48.96 210.505263 
" style="fill:none;stroke:#000000;stroke-linecap:square;stroke-linejoin:miter;stroke-width:0.8;"/>
   </g>
   <g id="patch_14">
    <path d="M 288.96 356.4 
L 288.96 210.505263 
" style="fill:none;stroke:#000000;stroke-linecap:square;stroke-linejoin:miter;stroke-width:0.8;"/>
   </g>
   <g id="patch_15">
    <path d="M 48.96 356.4 
L 288.96 356.4 
" style="fill:none;stroke:#000000;stroke-linecap:square;stroke-linejoin:miter;stroke-width:0.8;"/>
   </g>
   <g id="patch_16">
    <path d="M 48.96 210.505263 
L 288.96 210.505263 
" style="fill:none;stroke:#000000;stroke-linecap:square;stroke-linejoin:miter;stroke-width:0.8;"/>
   </g>
   <g id="text_47">
    <!-- $E_J/E_C = 10$ -->
    <g transform="translate(130.08 204.505263)scale(0.16 -0.16)">
     <use transform="translate(0 0.78125)" xlink:href="#DejaVuSans-Oblique-69"/>
     <use transform="translate(63.183594 -15.625)scale(0.7)" xlink:href="#DejaVuSans-Oblique-74"/>
     <use transform="translate(86.5625 0.78125)" xlink:href="#DejaVuSans-47"/>
     <use transform="translate(120.253906 0.78125)" xlink:href="#DejaVuSans-Oblique-69"/>
     <use transform="translate(183.4375 -15.625)scale(0.7)" xlink:href="#DejaVuSans-Oblique-67"/>
     <use transform="translate(254.53125 0.78125)" xlink:href="#DejaVuSans-61"/>
     <use transform="translate(357.802734 0.78125)" xlink:href="#DejaVuSans-49"/>
     <use transform="translate(421.425781 0.78125)" xlink:href="#DejaVuSans-48"/>
    </g>
   </g>
  </g>
  <g id="axes_4">
   <g id="patch_17">
    <path d="M 327.36 356.4 
L 567.36 356.4 
L 567.36 210.505263 
L 327.36 210.505263 
z
" style="fill:#ffffff;"/>
   </g>
   <g id="matplotlib.axis_7">
    <g id="xtick_28">
     <g id="line2d_51">
      <g>
       <use style="stroke:#000000;stroke-width:0.8;" x="327.36" xlink:href="#maa15ee8c19" y="356.4"/>
      </g>
     </g>
     <g id="text_48">
      <!-- $-2$ -->
      <g transform="translate(319.96 370.998438)scale(0.1 -0.1)">
       <use transform="translate(0 0.78125)" xlink:href="#DejaVuSans-8722"/>
       <use transform="translate(83.789062 0.78125)" xlink:href="#DejaVuSans-50"/>
      </g>
     </g>
    </g>
    <g id="xtick_29">
     <g id="line2d_52">
      <g>
       <use style="stroke:#000000;stroke-width:0.8;" x="357.36" xlink:href="#maa15ee8c19" y="356.4"/>
      </g>
     </g>
     <g id="text_49">
      <!-- $-3/2$ -->
      <g transform="translate(345.26 370.998438)scale(0.1 -0.1)">
       <use transform="translate(0 0.78125)" xlink:href="#DejaVuSans-8722"/>
       <use transform="translate(83.789062 0.78125)" xlink:href="#DejaVuSans-51"/>
       <use transform="translate(147.412109 0.78125)" xlink:href="#DejaVuSans-47"/>
       <use transform="translate(177.478516 0.78125)" xlink:href="#DejaVuSans-50"/>
      </g>
     </g>
    </g>
    <g id="xtick_30">
     <g id="line2d_53">
      <g>
       <use style="stroke:#000000;stroke-width:0.8;" x="387.36" xlink:href="#maa15ee8c19" y="356.4"/>
      </g>
     </g>
     <g id="text_50">
      <!-- $-1$ -->
      <g transform="translate(379.96 370.998438)scale(0.1 -0.1)">
       <use transform="translate(0 0.09375)" xlink:href="#DejaVuSans-8722"/>
       <use transform="translate(83.789062 0.09375)" xlink:href="#DejaVuSans-49"/>
      </g>
     </g>
    </g>
    <g id="xtick_31">
     <g id="line2d_54">
      <g>
       <use style="stroke:#000000;stroke-width:0.8;" x="417.36" xlink:href="#maa15ee8c19" y="356.4"/>
      </g>
     </g>
     <g id="text_51">
      <!-- $-1/2$ -->
      <g transform="translate(405.26 370.998438)scale(0.1 -0.1)">
       <use transform="translate(0 0.78125)" xlink:href="#DejaVuSans-8722"/>
       <use transform="translate(83.789062 0.78125)" xlink:href="#DejaVuSans-49"/>
       <use transform="translate(147.412109 0.78125)" xlink:href="#DejaVuSans-47"/>
       <use transform="translate(177.478516 0.78125)" xlink:href="#DejaVuSans-50"/>
      </g>
     </g>
    </g>
    <g id="xtick_32">
     <g id="line2d_55">
      <g>
       <use style="stroke:#000000;stroke-width:0.8;" x="447.36" xlink:href="#maa15ee8c19" y="356.4"/>
      </g>
     </g>
     <g id="text_52">
      <!-- $0$ -->
      <g transform="translate(444.16 370.998438)scale(0.1 -0.1)">
       <use transform="translate(0 0.78125)" xlink:href="#DejaVuSans-48"/>
      </g>
     </g>
    </g>
    <g id="xtick_33">
     <g id="line2d_56">
      <g>
       <use style="stroke:#000000;stroke-width:0.8;" x="477.36" xlink:href="#maa15ee8c19" y="356.4"/>
      </g>
     </g>
     <g id="text_53">
      <!-- $1/2$ -->
      <g transform="translate(469.46 370.998438)scale(0.1 -0.1)">
       <use transform="translate(0 0.78125)" xlink:href="#DejaVuSans-49"/>
       <use transform="translate(63.623047 0.78125)" xlink:href="#DejaVuSans-47"/>
       <use transform="translate(93.689453 0.78125)" xlink:href="#DejaVuSans-50"/>
      </g>
     </g>
    </g>
    <g id="xtick_34">
     <g id="line2d_57">
      <g>
       <use style="stroke:#000000;stroke-width:0.8;" x="507.36" xlink:href="#maa15ee8c19" y="356.4"/>
      </g>
     </g>
     <g id="text_54">
      <!-- $1$ -->
      <g transform="translate(504.16 370.998438)scale(0.1 -0.1)">
       <use transform="translate(0 0.09375)" xlink:href="#DejaVuSans-49"/>
      </g>
     </g>
    </g>
    <g id="xtick_35">
     <g id="line2d_58">
      <g>
       <use style="stroke:#000000;stroke-width:0.8;" x="537.36" xlink:href="#maa15ee8c19" y="356.4"/>
      </g>
     </g>
     <g id="text_55">
      <!-- $3/2$ -->
      <g transform="translate(529.46 370.998438)scale(0.1 -0.1)">
       <use transform="translate(0 0.78125)" xlink:href="#DejaVuSans-51"/>
       <use transform="translate(63.623047 0.78125)" xlink:href="#DejaVuSans-47"/>
       <use transform="translate(93.689453 0.78125)" xlink:href="#DejaVuSans-50"/>
      </g>
     </g>
    </g>
    <g id="xtick_36">
     <g id="line2d_59">
      <g>
       <use style="stroke:#000000;stroke-width:0.8;" x="567.36" xlink:href="#maa15ee8c19" y="356.4"/>
      </g>
     </g>
     <g id="text_56">
      <!-- $2$ -->
      <g transform="translate(564.16 370.998438)scale(0.1 -0.1)">
       <use transform="translate(0 0.78125)" xlink:href="#DejaVuSans-50"/>
      </g>
     </g>
    </g>
    <g id="text_57">
     <!-- $n_g$ -->
     <g transform="translate(439.035 386.945313)scale(0.15 -0.15)">
      <use xlink:href="#DejaVuSans-Oblique-110"/>
      <use transform="translate(63.378906 -16.40625)scale(0.7)" xlink:href="#DejaVuSans-Oblique-103"/>
     </g>
    </g>
   </g>
   <g id="matplotlib.axis_8">
    <g id="ytick_15">
     <g id="line2d_60">
      <g>
       <use style="stroke:#000000;stroke-width:0.8;" x="327.36" xlink:href="#m0e551114ed" y="351.75764"/>
      </g>
     </g>
     <g id="text_58">
      <!-- −3 -->
      <g transform="translate(305.617812 355.556859)scale(0.1 -0.1)">
       <use xlink:href="#DejaVuSans-8722"/>
       <use x="83.789062" xlink:href="#DejaVuSans-51"/>
      </g>
     </g>
    </g>
    <g id="ytick_16">
     <g id="line2d_61">
      <g>
       <use style="stroke:#000000;stroke-width:0.8;" x="327.36" xlink:href="#m0e551114ed" y="314.726385"/>
      </g>
     </g>
     <g id="text_59">
      <!-- −2 -->
      <g transform="translate(305.617812 318.525604)scale(0.1 -0.1)">
       <use xlink:href="#DejaVuSans-8722"/>
       <use x="83.789062" xlink:href="#DejaVuSans-50"/>
      </g>
     </g>
    </g>
    <g id="ytick_17">
     <g id="line2d_62">
      <g>
       <use style="stroke:#000000;stroke-width:0.8;" x="327.36" xlink:href="#m0e551114ed" y="277.695129"/>
      </g>
     </g>
     <g id="text_60">
      <!-- −1 -->
      <g transform="translate(305.617812 281.494348)scale(0.1 -0.1)">
       <use xlink:href="#DejaVuSans-8722"/>
       <use x="83.789062" xlink:href="#DejaVuSans-49"/>
      </g>
     </g>
    </g>
    <g id="ytick_18">
     <g id="line2d_63">
      <g>
       <use style="stroke:#000000;stroke-width:0.8;" x="327.36" xlink:href="#m0e551114ed" y="240.663873"/>
      </g>
     </g>
     <g id="text_61">
      <!-- 0 -->
      <g transform="translate(313.9975 244.463092)scale(0.1 -0.1)">
       <use xlink:href="#DejaVuSans-48"/>
      </g>
     </g>
    </g>
   </g>
   <g id="line2d_64">
    <path clip-path="url(#pe06be0382d)" d="M 327.36 319.360849 
L 567.36 319.360849 
L 567.36 319.360849 
" style="fill:none;stroke:#1f77b4;stroke-linecap:square;stroke-width:2;"/>
   </g>
   <g id="line2d_65">
    <path clip-path="url(#pe06be0382d)" d="M 327.36 282.324344 
L 567.36 282.324344 
L 567.36 282.324344 
" style="fill:none;stroke:#ff7f0e;stroke-linecap:square;stroke-width:2;"/>
   </g>
   <g id="line2d_66">
    <path clip-path="url(#pe06be0382d)" d="M 327.36 247.536519 
L 567.36 247.536519 
L 567.36 247.536519 
" style="fill:none;stroke:#2ca02c;stroke-linecap:square;stroke-width:2;"/>
   </g>
   <g id="patch_18">
    <path d="M 327.36 356.4 
L 327.36 210.505263 
" style="fill:none;stroke:#000000;stroke-linecap:square;stroke-linejoin:miter;stroke-width:0.8;"/>
   </g>
   <g id="patch_19">
    <path d="M 567.36 356.4 
L 567.36 210.505263 
" style="fill:none;stroke:#000000;stroke-linecap:square;stroke-linejoin:miter;stroke-width:0.8;"/>
   </g>
   <g id="patch_20">
    <path d="M 327.36 356.4 
L 567.36 356.4 
" style="fill:none;stroke:#000000;stroke-linecap:square;stroke-linejoin:miter;stroke-width:0.8;"/>
   </g>
   <g id="patch_21">
    <path d="M 327.36 210.505263 
L 567.36 210.505263 
" style="fill:none;stroke:#000000;stroke-linecap:square;stroke-linejoin:miter;stroke-width:0.8;"/>
   </g>
   <g id="text_62">
    <!-- $E_J/E_C = 50$ -->
    <g transform="translate(408.48 204.505263)scale(0.16 -0.16)">
     <use transform="translate(0 0.78125)" xlink:href="#DejaVuSans-Oblique-69"/>
     <use transform="translate(63.183594 -15.625)scale(0.7)" xlink:href="#DejaVuSans-Oblique-74"/>
     <use transform="translate(86.5625 0.78125)" xlink:href="#DejaVuSans-47"/>
     <use transform="translate(120.253906 0.78125)" xlink:href="#DejaVuSans-Oblique-69"/>
     <use transform="translate(183.4375 -15.625)scale(0.7)" xlink:href="#DejaVuSans-Oblique-67"/>
     <use transform="translate(254.53125 0.78125)" xlink:href="#DejaVuSans-61"/>
     <use transform="translate(357.802734 0.78125)" xlink:href="#DejaVuSans-53"/>
     <use transform="translate(421.425781 0.78125)" xlink:href="#DejaVuSans-48"/>
    </g>
   </g>
  </g>
  <g id="legend_1">
   <g id="patch_22">
    <path d="M 94.575 424.5 
L 481.425 424.5 
Q 484.425 424.5 484.425 421.5 
L 484.425 400.35 
Q 484.425 397.35 481.425 397.35 
L 94.575 397.35 
Q 91.575 397.35 91.575 400.35 
L 91.575 421.5 
Q 91.575 424.5 94.575 424.5 
z
" style="fill:#ffffff;opacity:0.8;stroke:#cccccc;stroke-linejoin:miter;"/>
   </g>
   <g id="line2d_67">
    <path d="M 97.575 409.65 
L 127.575 409.65 
" style="fill:none;stroke:#1f77b4;stroke-linecap:square;stroke-width:2;"/>
   </g>
   <g id="line2d_68"/>
   <g id="text_63">
    <!-- State $|0\rangle$ -->
    <g transform="translate(139.575 414.9)scale(0.15 -0.15)">
     <defs>
      <path d="M 53.515625 70.515625 
L 53.515625 60.890625 
Q 47.90625 63.578125 42.921875 64.890625 
Q 37.9375 66.21875 33.296875 66.21875 
Q 25.25 66.21875 20.875 63.09375 
Q 16.5 59.96875 16.5 54.203125 
Q 16.5 49.359375 19.40625 46.890625 
Q 22.3125 44.4375 30.421875 42.921875 
L 36.375 41.703125 
Q 47.40625 39.59375 52.65625 34.296875 
Q 57.90625 29 57.90625 20.125 
Q 57.90625 9.515625 50.796875 4.046875 
Q 43.703125 -1.421875 29.984375 -1.421875 
Q 24.8125 -1.421875 18.96875 -0.25 
Q 13.140625 0.921875 6.890625 3.21875 
L 6.890625 13.375 
Q 12.890625 10.015625 18.65625 8.296875 
Q 24.421875 6.59375 29.984375 6.59375 
Q 38.421875 6.59375 43.015625 9.90625 
Q 47.609375 13.234375 47.609375 19.390625 
Q 47.609375 24.75 44.3125 27.78125 
Q 41.015625 30.8125 33.5 32.328125 
L 27.484375 33.5 
Q 16.453125 35.6875 11.515625 40.375 
Q 6.59375 45.0625 6.59375 53.421875 
Q 6.59375 63.09375 13.40625 68.65625 
Q 20.21875 74.21875 32.171875 74.21875 
Q 37.3125 74.21875 42.625 73.28125 
Q 47.953125 72.359375 53.515625 70.515625 
z
" id="DejaVuSans-83"/>
      <path d="M 18.3125 70.21875 
L 18.3125 54.6875 
L 36.8125 54.6875 
L 36.8125 47.703125 
L 18.3125 47.703125 
L 18.3125 18.015625 
Q 18.3125 11.328125 20.140625 9.421875 
Q 21.96875 7.515625 27.59375 7.515625 
L 36.8125 7.515625 
L 36.8125 0 
L 27.59375 0 
Q 17.1875 0 13.234375 3.875 
Q 9.28125 7.765625 9.28125 18.015625 
L 9.28125 47.703125 
L 2.6875 47.703125 
L 2.6875 54.6875 
L 9.28125 54.6875 
L 9.28125 70.21875 
z
" id="DejaVuSans-116"/>
      <path d="M 34.28125 27.484375 
Q 23.390625 27.484375 19.1875 25 
Q 14.984375 22.515625 14.984375 16.5 
Q 14.984375 11.71875 18.140625 8.90625 
Q 21.296875 6.109375 26.703125 6.109375 
Q 34.1875 6.109375 38.703125 11.40625 
Q 43.21875 16.703125 43.21875 25.484375 
L 43.21875 27.484375 
z
M 52.203125 31.203125 
L 52.203125 0 
L 43.21875 0 
L 43.21875 8.296875 
Q 40.140625 3.328125 35.546875 0.953125 
Q 30.953125 -1.421875 24.3125 -1.421875 
Q 15.921875 -1.421875 10.953125 3.296875 
Q 6 8.015625 6 15.921875 
Q 6 25.140625 12.171875 29.828125 
Q 18.359375 34.515625 30.609375 34.515625 
L 43.21875 34.515625 
L 43.21875 35.40625 
Q 43.21875 41.609375 39.140625 45 
Q 35.0625 48.390625 27.6875 48.390625 
Q 23 48.390625 18.546875 47.265625 
Q 14.109375 46.140625 10.015625 43.890625 
L 10.015625 52.203125 
Q 14.9375 54.109375 19.578125 55.046875 
Q 24.21875 56 28.609375 56 
Q 40.484375 56 46.34375 49.84375 
Q 52.203125 43.703125 52.203125 31.203125 
z
" id="DejaVuSans-97"/>
      <path d="M 56.203125 29.59375 
L 56.203125 25.203125 
L 14.890625 25.203125 
Q 15.484375 15.921875 20.484375 11.0625 
Q 25.484375 6.203125 34.421875 6.203125 
Q 39.59375 6.203125 44.453125 7.46875 
Q 49.3125 8.734375 54.109375 11.28125 
L 54.109375 2.78125 
Q 49.265625 0.734375 44.1875 -0.34375 
Q 39.109375 -1.421875 33.890625 -1.421875 
Q 20.796875 -1.421875 13.15625 6.1875 
Q 5.515625 13.8125 5.515625 26.8125 
Q 5.515625 40.234375 12.765625 48.109375 
Q 20.015625 56 32.328125 56 
Q 43.359375 56 49.78125 48.890625 
Q 56.203125 41.796875 56.203125 29.59375 
z
M 47.21875 32.234375 
Q 47.125 39.59375 43.09375 43.984375 
Q 39.0625 48.390625 32.421875 48.390625 
Q 24.90625 48.390625 20.390625 44.140625 
Q 15.875 39.890625 15.1875 32.171875 
z
" id="DejaVuSans-101"/>
      <path id="DejaVuSans-32"/>
      <path d="M 21 76.421875 
L 21 -23.578125 
L 12.703125 -23.578125 
L 12.703125 76.421875 
z
" id="DejaVuSans-124"/>
      <path d="M 30.078125 31.34375 
L 16.3125 -13.1875 
L 8.015625 -13.1875 
L 21.78125 31.34375 
L 8.015625 75.875 
L 16.3125 75.875 
z
" id="DejaVuSans-10217"/>
     </defs>
     <use transform="translate(0 0.578125)" xlink:href="#DejaVuSans-83"/>
     <use transform="translate(63.476562 0.578125)" xlink:href="#DejaVuSans-116"/>
     <use transform="translate(102.685547 0.578125)" xlink:href="#DejaVuSans-97"/>
     <use transform="translate(163.964844 0.578125)" xlink:href="#DejaVuSans-116"/>
     <use transform="translate(203.173828 0.578125)" xlink:href="#DejaVuSans-101"/>
     <use transform="translate(264.697266 0.578125)" xlink:href="#DejaVuSans-32"/>
     <use transform="translate(296.484375 0.578125)" xlink:href="#DejaVuSans-124"/>
     <use transform="translate(330.175781 0.578125)" xlink:href="#DejaVuSans-48"/>
     <use transform="translate(393.798828 0.578125)" xlink:href="#DejaVuSans-10217"/>
    </g>
   </g>
   <g id="line2d_69">
    <path d="M 234.525 409.65 
L 264.525 409.65 
" style="fill:none;stroke:#ff7f0e;stroke-linecap:square;stroke-width:2;"/>
   </g>
   <g id="line2d_70"/>
   <g id="text_64">
    <!-- State $|1\rangle$ -->
    <g transform="translate(276.525 414.9)scale(0.15 -0.15)">
     <use transform="translate(0 0.578125)" xlink:href="#DejaVuSans-83"/>
     <use transform="translate(63.476562 0.578125)" xlink:href="#DejaVuSans-116"/>
     <use transform="translate(102.685547 0.578125)" xlink:href="#DejaVuSans-97"/>
     <use transform="translate(163.964844 0.578125)" xlink:href="#DejaVuSans-116"/>
     <use transform="translate(203.173828 0.578125)" xlink:href="#DejaVuSans-101"/>
     <use transform="translate(264.697266 0.578125)" xlink:href="#DejaVuSans-32"/>
     <use transform="translate(296.484375 0.578125)" xlink:href="#DejaVuSans-124"/>
     <use transform="translate(330.175781 0.578125)" xlink:href="#DejaVuSans-49"/>
     <use transform="translate(393.798828 0.578125)" xlink:href="#DejaVuSans-10217"/>
    </g>
   </g>
   <g id="line2d_71">
    <path d="M 371.475 409.65 
L 401.475 409.65 
" style="fill:none;stroke:#2ca02c;stroke-linecap:square;stroke-width:2;"/>
   </g>
   <g id="line2d_72"/>
   <g id="text_65">
    <!-- State $|2\rangle$ -->
    <g transform="translate(413.475 414.9)scale(0.15 -0.15)">
     <use transform="translate(0 0.578125)" xlink:href="#DejaVuSans-83"/>
     <use transform="translate(63.476562 0.578125)" xlink:href="#DejaVuSans-116"/>
     <use transform="translate(102.685547 0.578125)" xlink:href="#DejaVuSans-97"/>
     <use transform="translate(163.964844 0.578125)" xlink:href="#DejaVuSans-116"/>
     <use transform="translate(203.173828 0.578125)" xlink:href="#DejaVuSans-101"/>
     <use transform="translate(264.697266 0.578125)" xlink:href="#DejaVuSans-32"/>
     <use transform="translate(296.484375 0.578125)" xlink:href="#DejaVuSans-124"/>
     <use transform="translate(330.175781 0.578125)" xlink:href="#DejaVuSans-50"/>
     <use transform="translate(393.798828 0.578125)" xlink:href="#DejaVuSans-10217"/>
    </g>
   </g>
  </g>
 </g>
 <defs>
  <clipPath id="p55ec2c0a80">
   <rect height="145.894737" width="240" x="48.96" y="23.76"/>
  </clipPath>
  <clipPath id="p824e541776">
   <rect height="145.894737" width="240" x="327.36" y="23.76"/>
  </clipPath>
  <clipPath id="p042e6b0650">
   <rect height="145.894737" width="240" x="48.96" y="210.505263"/>
  </clipPath>
  <clipPath id="pe06be0382d">
   <rect height="145.894737" width="240" x="327.36" y="210.505263"/>
  </clipPath>
 </defs>
</svg>
